SkotchRevival_12-05-16.ufo
<glyph name="exclam" format="1">
  <advance width="240"/>
  <unicode hex="0021"/>
  <outline>
    <contour>
      <point x="192" y="710"/>
      <point x="157" y="744"/>
      <point x="120" y="744" type="curve" smooth="yes"/>
      <point x="83" y="744"/>
      <point x="48" y="710"/>
      <point x="48" y="631" type="curve" smooth="yes"/>
      <point x="48" y="563"/>
      <point x="86" y="401"/>
      <point x="95" y="175" type="curve"/>
      <point x="143" y="175" type="line"/>
      <point x="155" y="402"/>
      <point x="192" y="565"/>
      <point x="192" y="631" type="curve" smooth="yes"/>
    </contour>
    <contour>
      <point x="119" y="-12" type="curve" smooth="yes"/>
      <point x="152" y="-12"/>
      <point x="176" y="10"/>
      <point x="176" y="42" type="curve" smooth="yes"/>
      <point x="176" y="75"/>
      <point x="152" y="99"/>
      <point x="119" y="99" type="curve" smooth="yes"/>
      <point x="86" y="99"/>
      <point x="65" y="75"/>
      <point x="65" y="42" type="curve" smooth="yes"/>
      <point x="65" y="10"/>
      <point x="86" y="-12"/>
    </contour>
  </outline>
</glyph>
<glyph name="quotedbl" format="1">
  <advance width="407"/>
  <unicode hex="0022"/>
  <outline>
    <contour>
      <point x="159" y="719"/>
      <point x="139" y="744"/>
      <point x="104" y="744" type="curve" smooth="yes"/>
      <point x="67" y="744"/>
      <point x="48" y="719"/>
      <point x="48" y="689" type="curve" smooth="yes"/>
      <point x="48" y="661"/>
      <point x="70" y="583"/>
      <point x="87" y="480" type="curve"/>
      <point x="117" y="480" type="line"/>
      <point x="136" y="582"/>
      <point x="159" y="663"/>
      <point x="159" y="689" type="curve" smooth="yes"/>
    </contour>
    <contour>
      <point x="359" y="719"/>
      <point x="339" y="744"/>
      <point x="304" y="744" type="curve" smooth="yes"/>
      <point x="267" y="744"/>
      <point x="248" y="719"/>
      <point x="248" y="689" type="curve" smooth="yes"/>
      <point x="248" y="661"/>
      <point x="270" y="583"/>
      <point x="287" y="480" type="curve"/>
      <point x="317" y="480" type="line"/>
      <point x="336" y="582"/>
      <point x="359" y="663"/>
      <point x="359" y="689" type="curve" smooth="yes"/>
    </contour>
  </outline>
</glyph>
<glyph name="quotesingle" format="1">
  <advance width="207"/>
  <unicode hex="0027"/>
  <outline>
    <contour>
      <point x="159" y="719"/>
      <point x="139" y="744"/>
      <point x="104" y="744" type="curve" smooth="yes"/>
      <point x="67" y="744"/>
      <point x="48" y="719"/>
      <point x="48" y="689" type="curve" smooth="yes"/>
      <point x="48" y="661"/>
      <point x="70" y="583"/>
      <point x="87" y="480" type="curve"/>
      <point x="117" y="480" type="line"/>
      <point x="136" y="582"/>
      <point x="159" y="663"/>
      <point x="159" y="689" type="curve" smooth="yes"/>
    </contour>
  </outline>
</glyph>
<glyph name="comma" format="1">
  <advance width="198"/>
  <unicode hex="002C"/>
  <outline>
    <contour>
      <point x="34" y="-204" type="line"/>
      <point x="109" y="-160"/>
      <point x="133" y="-119"/>
      <point x="147" y="-12" type="curve"/>
      <point x="94" y="-14"/>
      <point x="67" y="13"/>
      <point x="67" y="46" type="curve" smooth="yes"/>
      <point x="67" y="80"/>
      <point x="94" y="106"/>
      <point x="127" y="106" type="curve" smooth="yes"/>
      <point x="160" y="106"/>
      <point x="187" y="80"/>
      <point x="187" y="23" type="curve" smooth="yes"/>
      <point x="187" y="-106"/>
      <point x="128" y="-206"/>
      <point x="34" y="-237" type="curve"/>
    </contour>
  </outline>
</glyph>
<glyph name="hyphen" format="1">
  <advance width="336"/>
  <unicode hex="002D"/>
  <outline>
    <contour>
      <point x="60" y="240" type="line"/>
      <point x="276" y="240" type="line"/>
      <point x="276" y="288" type="line"/>
      <point x="60" y="288" type="line"/>
    </contour>
  </outline>
</glyph>
<glyph name="period" format="1">
  <advance width="207"/>
  <unicode hex="002E"/>
  <outline>
    <contour>
      <point x="102" y="-12" type="curve" smooth="yes"/>
      <point x="135" y="-12"/>
      <point x="159" y="10"/>
      <point x="159" y="42" type="curve" smooth="yes"/>
      <point x="159" y="75"/>
      <point x="135" y="99"/>
      <point x="102" y="99" type="curve" smooth="yes"/>
      <point x="69" y="99"/>
      <point x="48" y="75"/>
      <point x="48" y="42" type="curve" smooth="yes"/>
      <point x="48" y="10"/>
      <point x="69" y="-12"/>
    </contour>
  </outline>
</glyph>
<glyph name="zero" format="1">
  <advance width="570"/>
  <unicode hex="0030"/>
  <outline>
    <contour>
      <point x="429" y="708"/>
      <point x="522" y="522"/>
      <point x="522" y="354" type="curve" smooth="yes"/>
      <point x="522" y="185"/>
      <point x="428" y="-12"/>
      <point x="282" y="-12" type="curve" smooth="yes"/>
      <point x="138" y="-12"/>
      <point x="48" y="185"/>
      <point x="48" y="354" type="curve" smooth="yes"/>
      <point x="48" y="522"/>
      <point x="138" y="708"/>
      <point x="282" y="708" type="curve" smooth="yes"/>
    </contour>
    <contour>
      <point x="203" y="679"/>
      <point x="161" y="579"/>
      <point x="162" y="354" type="curve" smooth="yes"/>
      <point x="163" y="128"/>
      <point x="203" y="19"/>
      <point x="282" y="18" type="curve" smooth="yes"/>
      <point x="362" y="17"/>
      <point x="409" y="128"/>
      <point x="408" y="354" type="curve" smooth="yes"/>
      <point x="407" y="579"/>
      <point x="362" y="677"/>
      <point x="282" y="678" type="curve" smooth="yes"/>
    </contour>
  </outline>
</glyph>
<glyph name="one" format="1">
  <advance width="495"/>
  <unicode hex="0031"/>
  <outline>
    <contour>
      <point x="291" y="51"/>
      <point x="303" y="42"/>
      <point x="372" y="36" type="curve"/>
      <point x="447" y="30" type="line"/>
      <point x="447" y="0" type="line"/>
      <point x="48" y="0" type="line"/>
      <point x="48" y="30" type="line"/>
      <point x="120" y="36" type="line"/>
      <point x="186" y="42"/>
      <point x="198" y="51"/>
      <point x="198" y="96" type="curve" smooth="yes"/>
      <point x="198" y="603" type="line"/>
      <point x="162" y="594"/>
      <point x="120" y="588"/>
      <point x="57" y="588" type="curve"/>
      <point x="57" y="618" type="line"/>
      <point x="150" y="618"/>
      <point x="198" y="648"/>
      <point x="252" y="708" type="curve"/>
      <point x="291" y="708" type="line"/>
      <point x="291" y="96" type="line" smooth="yes"/>
    </contour>
  </outline>
</glyph>
<glyph name="two" format="1">
  <advance width="600"/>
  <unicode hex="0032"/>
  <outline>
    <contour>
      <point x="287" y="428"/>
      <point x="263" y="372"/>
      <point x="206" y="372" type="curve" smooth="yes"/>
      <point x="153" y="372"/>
      <point x="129" y="422"/>
      <point x="129" y="478" type="curve" smooth="yes"/>
      <point x="129" y="572"/>
      <point x="196" y="663"/>
      <point x="299" y="663" type="curve" smooth="yes"/>
      <point x="372" y="663"/>
      <point x="408" y="617"/>
      <point x="408" y="536" type="curve" smooth="yes"/>
      <point x="408" y="291"/>
      <point x="80" y="104"/>
      <point x="72" y="-12" type="curve"/>
      <point x="108" y="-12" type="line"/>
      <point x="123" y="54"/>
      <point x="165" y="105"/>
      <point x="207" y="105" type="curve" smooth="yes"/>
      <point x="268" y="105"/>
      <point x="299" y="-9"/>
      <point x="385" y="-9" type="curve" smooth="yes"/>
      <point x="489" y="-9"/>
      <point x="552" y="159"/>
      <point x="552" y="201" type="curve"/>
      <point x="522" y="201" type="line"/>
      <point x="519" y="158"/>
      <point x="491" y="108"/>
      <point x="463" y="108" type="curve" smooth="yes"/>
      <point x="431" y="108"/>
      <point x="255" y="171"/>
      <point x="213" y="150" type="curve"/>
      <point x="219" y="138" type="line"/>
      <point x="334" y="273"/>
      <point x="519" y="348"/>
      <point x="519" y="503" type="curve" smooth="yes"/>
      <point x="519" y="617"/>
      <point x="419" y="711"/>
      <point x="328" y="711" type="curve" smooth="yes"/>
      <point x="240" y="711"/>
      <point x="75" y="623"/>
      <point x="75" y="429" type="curve" smooth="yes"/>
      <point x="75" y="346"/>
      <point x="105" y="303"/>
      <point x="162" y="303" type="curve" smooth="yes"/>
      <point x="249" y="303"/>
      <point x="315" y="405"/>
      <point x="321" y="483" type="curve"/>
      <point x="300" y="492" type="line"/>
    </contour>
  </outline>
</glyph>
<glyph name="three" format="1">
  <advance width="600"/>
  <unicode hex="0033"/>
  <outline>
    <contour>
      <point x="204" y="462"/>
      <point x="184" y="435"/>
      <point x="136" y="435" type="curve" smooth="yes"/>
      <point x="87" y="435"/>
      <point x="66" y="464"/>
      <point x="66" y="508" type="curve" smooth="yes"/>
      <point x="66" y="619"/>
      <point x="166" y="708"/>
      <point x="291" y="708" type="curve" smooth="yes"/>
      <point x="390" y="708"/>
      <point x="501" y="636"/>
      <point x="501" y="564" type="curve" smooth="yes"/>
      <point x="501" y="456"/>
      <point x="385" y="398"/>
      <point x="327" y="360" type="curve"/>
      <point x="330" y="387" type="line"/>
      <point x="387" y="369"/>
      <point x="522" y="345"/>
      <point x="522" y="224" type="curve" smooth="yes"/>
      <point x="522" y="28"/>
      <point x="334" y="-12"/>
      <point x="242" y="-12" type="curve" smooth="yes"/>
      <point x="125" y="-12"/>
      <point x="42" y="53"/>
      <point x="42" y="146" type="curve" smooth="yes"/>
      <point x="42" y="192"/>
      <point x="67" y="219"/>
      <point x="109" y="219" type="curve" smooth="yes"/>
      <point x="156" y="219"/>
      <point x="183" y="192"/>
      <point x="183" y="147" type="curve" smooth="yes"/>
      <point x="183" y="112"/>
      <point x="156" y="95"/>
      <point x="156" y="79" type="curve" smooth="yes"/>
      <point x="156" y="49"/>
      <point x="204" y="18"/>
      <point x="251" y="18" type="curve" smooth="yes"/>
      <point x="322" y="18"/>
      <point x="396" y="93"/>
      <point x="396" y="226" type="curve" smooth="yes"/>
      <point x="396" y="327"/>
      <point x="353" y="345"/>
      <point x="291" y="345" type="curve" smooth="yes"/>
      <point x="126" y="345" type="line"/>
      <point x="126" y="375" type="line"/>
      <point x="225" y="375" type="line" smooth="yes"/>
      <point x="352" y="375"/>
      <point x="390" y="456"/>
      <point x="390" y="535" type="curve" smooth="yes"/>
      <point x="390" y="611"/>
      <point x="354" y="678"/>
      <point x="270" y="678" type="curve" smooth="yes"/>
      <point x="200" y="678"/>
      <point x="156" y="643"/>
      <point x="156" y="586" type="curve" smooth="yes"/>
      <point x="156" y="546"/>
      <point x="204" y="568"/>
      <point x="204" y="504" type="curve" smooth="yes"/>
    </contour>
  </outline>
</glyph>
<glyph name="four" format="1">
  <advance width="573"/>
  <unicode hex="0034"/>
  <outline>
    <contour>
      <point x="396" y="51"/>
      <point x="408" y="42"/>
      <point x="477" y="36" type="curve"/>
      <point x="525" y="30" type="line"/>
      <point x="525" y="0" type="line"/>
      <point x="177" y="0" type="line"/>
      <point x="177" y="30" type="line"/>
      <point x="225" y="36" type="line"/>
      <point x="291" y="42"/>
      <point x="303" y="51"/>
      <point x="303" y="96" type="curve" smooth="yes"/>
      <point x="303" y="618" type="line"/>
      <point x="321" y="615" type="line"/>
      <point x="78" y="234" type="line"/>
      <point x="69" y="246" type="line"/>
      <point x="507" y="249" type="line"/>
      <point x="507" y="213" type="line"/>
      <point x="48" y="213" type="line"/>
      <point x="48" y="243" type="line"/>
      <point x="345" y="708" type="line"/>
      <point x="396" y="708" type="line"/>
      <point x="396" y="96" type="line" smooth="yes"/>
    </contour>
  </outline>
</glyph>
<glyph name="five" format="1">
  <advance width="552"/>
  <unicode hex="0035"/>
  <outline>
    <contour>
      <point x="240" y="702" type="line"/>
      <point x="283" y="664"/>
      <point x="312" y="639"/>
      <point x="375" y="639" type="curve" smooth="yes"/>
      <point x="415" y="639"/>
      <point x="441" y="649"/>
      <point x="480" y="678" type="curve"/>
      <point x="504" y="654" type="line"/>
      <point x="458" y="591"/>
      <point x="394" y="546"/>
      <point x="324" y="546" type="curve" smooth="yes"/>
      <point x="277" y="546"/>
      <point x="231" y="567"/>
      <point x="207" y="615" type="curve"/>
      <point x="225" y="654" type="line"/>
      <point x="171" y="390" type="line"/>
      <point x="150" y="381" type="line"/>
      <point x="200" y="427"/>
      <point x="234" y="441"/>
      <point x="286" y="441" type="curve" smooth="yes"/>
      <point x="414" y="441"/>
      <point x="498" y="354"/>
      <point x="498" y="248" type="curve" smooth="yes"/>
      <point x="498" y="109"/>
      <point x="354" y="-12"/>
      <point x="229" y="-12" type="curve" smooth="yes"/>
      <point x="149" y="-12"/>
      <point x="48" y="38"/>
      <point x="48" y="137" type="curve" smooth="yes"/>
      <point x="48" y="188"/>
      <point x="75" y="219"/>
      <point x="114" y="219" type="curve" smooth="yes"/>
      <point x="155" y="219"/>
      <point x="177" y="183"/>
      <point x="177" y="154" type="curve" smooth="yes"/>
      <point x="177" y="119"/>
      <point x="144" y="103"/>
      <point x="144" y="68" type="curve" smooth="yes"/>
      <point x="144" y="39"/>
      <point x="168" y="18"/>
      <point x="209" y="18" type="curve" smooth="yes"/>
      <point x="293" y="18"/>
      <point x="384" y="108"/>
      <point x="384" y="260" type="curve" smooth="yes"/>
      <point x="384" y="359"/>
      <point x="346" y="411"/>
      <point x="274" y="411" type="curve" smooth="yes"/>
      <point x="217" y="411"/>
      <point x="172" y="378"/>
      <point x="147" y="294" type="curve"/>
      <point x="117" y="294" type="line"/>
      <point x="207" y="702" type="line"/>
    </contour>
  </outline>
</glyph>
<glyph name="six" format="1">
  <advance width="543"/>
  <unicode hex="0036"/>
  <outline>
    <contour>
      <point x="132" y="264" type="line"/>
      <point x="124" y="401"/>
      <point x="219" y="459"/>
      <point x="290" y="459" type="curve" smooth="yes"/>
      <point x="369" y="459"/>
      <point x="495" y="388"/>
      <point x="495" y="237" type="curve" smooth="yes"/>
      <point x="495" y="99"/>
      <point x="390" y="-12"/>
      <point x="274" y="-12" type="curve" smooth="yes"/>
      <point x="134" y="-12"/>
      <point x="48" y="150"/>
      <point x="48" y="325" type="curve" smooth="yes"/>
      <point x="48" y="545"/>
      <point x="185" y="708"/>
      <point x="312" y="708" type="curve" smooth="yes"/>
      <point x="387" y="708"/>
      <point x="480" y="651"/>
      <point x="480" y="571" type="curve" smooth="yes"/>
      <point x="480" y="529"/>
      <point x="454" y="504"/>
      <point x="419" y="504" type="curve" smooth="yes"/>
      <point x="387" y="504"/>
      <point x="354" y="524"/>
      <point x="354" y="569" type="curve" smooth="yes"/>
      <point x="354" y="613"/>
      <point x="387" y="607"/>
      <point x="387" y="635" type="curve" smooth="yes"/>
      <point x="387" y="663"/>
      <point x="352" y="678"/>
      <point x="315" y="678" type="curve" smooth="yes"/>
      <point x="231" y="677"/>
      <point x="162" y="591"/>
      <point x="162" y="317" type="curve" smooth="yes"/>
      <point x="162" y="79"/>
      <point x="214" y="18"/>
      <point x="275" y="18" type="curve" smooth="yes"/>
      <point x="327" y="18"/>
      <point x="378" y="61"/>
      <point x="378" y="243" type="curve" smooth="yes"/>
      <point x="378" y="409"/>
      <point x="336" y="429"/>
      <point x="287" y="429" type="curve" smooth="yes"/>
      <point x="224" y="429"/>
      <point x="157" y="396"/>
      <point x="162" y="264" type="curve"/>
    </contour>
  </outline>
</glyph>
<glyph name="seven" format="1">
  <advance width="573"/>
  <unicode hex="0037"/>
  <outline>
    <contour>
      <point x="90" y="678"/>
      <point x="133" y="702"/>
      <point x="186" y="702" type="curve" smooth="yes"/>
      <point x="279" y="702"/>
      <point x="310" y="630"/>
      <point x="376" y="630" type="curve" smooth="yes"/>
      <point x="434" y="630"/>
      <point x="471" y="684"/>
      <point x="477" y="699" type="curve"/>
      <point x="525" y="663" type="line"/>
      <point x="369" y="367"/>
      <point x="326" y="465"/>
      <point x="315" y="102" type="curve" smooth="yes"/>
      <point x="314" y="51"/>
      <point x="309" y="-12"/>
      <point x="256" y="-12" type="curve" smooth="yes"/>
      <point x="206" y="-12"/>
      <point x="198" y="45"/>
      <point x="198" y="86" type="curve" smooth="yes"/>
      <point x="198" y="255"/>
      <point x="336" y="391"/>
      <point x="426" y="570" type="curve"/>
      <point x="435" y="561" type="line"/>
      <point x="381" y="555"/>
      <point x="322" y="546"/>
      <point x="265" y="546" type="curve" smooth="yes"/>
      <point x="199" y="546"/>
      <point x="153" y="558"/>
      <point x="123" y="570" type="curve"/>
      <point x="90" y="537"/>
      <point x="81" y="513"/>
      <point x="78" y="459" type="curve"/>
      <point x="48" y="459" type="line"/>
      <point x="66" y="639" type="line"/>
    </contour>
  </outline>
</glyph>
<glyph name="eight" format="1">
  <advance width="561"/>
  <unicode hex="0038"/>
  <outline>
    <contour>
      <point x="429" y="466"/>
      <point x="383" y="431"/>
      <point x="304" y="388" type="curve"/>
      <point x="328" y="365" type="line"/>
      <point x="405" y="418"/>
      <point x="489" y="439"/>
      <point x="489" y="539" type="curve" smooth="yes"/>
      <point x="489" y="662"/>
      <point x="361" y="711"/>
      <point x="274" y="711" type="curve" smooth="yes"/>
      <point x="163" y="711"/>
      <point x="66" y="630"/>
      <point x="66" y="519" type="curve" smooth="yes"/>
      <point x="66" y="444"/>
      <point x="111" y="384"/>
      <point x="174" y="357" type="curve"/>
      <point x="342" y="291" type="line"/>
      <point x="412" y="261"/>
      <point x="429" y="201"/>
      <point x="429" y="163" type="curve" smooth="yes"/>
      <point x="429" y="89"/>
      <point x="365" y="18"/>
      <point x="292" y="18" type="curve" smooth="yes"/>
      <point x="246" y="18"/>
      <point x="129" y="47"/>
      <point x="129" y="176" type="curve" smooth="yes"/>
      <point x="129" y="245"/>
      <point x="163" y="297"/>
      <point x="250" y="337" type="curve"/>
      <point x="221" y="359" type="line"/>
      <point x="154" y="323"/>
      <point x="48" y="265"/>
      <point x="48" y="165" type="curve" smooth="yes"/>
      <point x="48" y="43"/>
      <point x="205" y="-12"/>
      <point x="295" y="-12" type="curve" smooth="yes"/>
      <point x="407" y="-12"/>
      <point x="513" y="74"/>
      <point x="513" y="206" type="curve" smooth="yes"/>
      <point x="513" y="284"/>
      <point x="476" y="341"/>
      <point x="384" y="375" type="curve"/>
      <point x="228" y="435" type="line"/>
      <point x="164" y="464"/>
      <point x="150" y="509"/>
      <point x="150" y="550" type="curve" smooth="yes"/>
      <point x="150" y="621"/>
      <point x="193" y="681"/>
      <point x="266" y="681" type="curve" smooth="yes"/>
      <point x="329" y="681"/>
      <point x="429" y="635"/>
      <point x="429" y="534" type="curve" smooth="yes"/>
    </contour>
  </outline>
</glyph>
<glyph name="nine" format="1">
  <advance width="543"/>
  <unicode hex="0039"/>
  <outline>
    <contour>
      <point x="411" y="432" type="line"/>
      <point x="420" y="291"/>
      <point x="315" y="237"/>
      <point x="261" y="237" type="curve" smooth="yes"/>
      <point x="168" y="237"/>
      <point x="48" y="312"/>
      <point x="48" y="456" type="curve" smooth="yes"/>
      <point x="48" y="600"/>
      <point x="138" y="708"/>
      <point x="270" y="708" type="curve" smooth="yes"/>
      <point x="420" y="708"/>
      <point x="495" y="561"/>
      <point x="495" y="354" type="curve" smooth="yes"/>
      <point x="495" y="174"/>
      <point x="369" y="-12"/>
      <point x="228" y="-12" type="curve" smooth="yes"/>
      <point x="159" y="-12"/>
      <point x="63" y="45"/>
      <point x="63" y="123" type="curve" smooth="yes"/>
      <point x="63" y="168"/>
      <point x="90" y="192"/>
      <point x="123" y="192" type="curve" smooth="yes"/>
      <point x="156" y="192"/>
      <point x="189" y="174"/>
      <point x="189" y="126" type="curve" smooth="yes"/>
      <point x="189" y="84"/>
      <point x="156" y="90"/>
      <point x="156" y="60" type="curve" smooth="yes"/>
      <point x="156" y="32"/>
      <point x="197" y="17"/>
      <point x="228" y="18" type="curve" smooth="yes"/>
      <point x="309" y="21"/>
      <point x="381" y="117"/>
      <point x="381" y="342" type="curve" smooth="yes"/>
      <point x="381" y="618"/>
      <point x="340" y="678"/>
      <point x="261" y="678" type="curve" smooth="yes"/>
      <point x="189" y="678"/>
      <point x="162" y="618"/>
      <point x="165" y="456" type="curve" smooth="yes"/>
      <point x="168" y="288"/>
      <point x="198" y="267"/>
      <point x="261" y="267" type="curve" smooth="yes"/>
      <point x="315" y="267"/>
      <point x="387" y="300"/>
      <point x="381" y="432" type="curve"/>
    </contour>
  </outline>
</glyph>
<glyph name="colon" format="1">
  <advance width="207"/>
  <unicode hex="003A"/>
  <outline>
    <contour>
      <point x="102" y="418" type="curve" smooth="yes"/>
      <point x="135" y="418"/>
      <point x="159" y="440"/>
      <point x="159" y="472" type="curve" smooth="yes"/>
      <point x="159" y="505"/>
      <point x="135" y="529"/>
      <point x="102" y="529" type="curve" smooth="yes"/>
      <point x="69" y="529"/>
      <point x="48" y="505"/>
      <point x="48" y="472" type="curve" smooth="yes"/>
      <point x="48" y="440"/>
      <point x="69" y="418"/>
    </contour>
    <contour>
      <point x="102" y="-12" type="curve" smooth="yes"/>
      <point x="135" y="-12"/>
      <point x="159" y="10"/>
      <point x="159" y="42" type="curve" smooth="yes"/>
      <point x="159" y="75"/>
      <point x="135" y="99"/>
      <point x="102" y="99" type="curve" smooth="yes"/>
      <point x="69" y="99"/>
      <point x="48" y="75"/>
      <point x="48" y="42" type="curve" smooth="yes"/>
      <point x="48" y="10"/>
      <point x="69" y="-12"/>
    </contour>
  </outline>
</glyph>
<glyph name="semicolon" format="1">
  <advance width="249"/>
  <unicode hex="003B"/>
  <outline>
    <contour>
      <point x="48" y="-204" type="line"/>
      <point x="123" y="-160"/>
      <point x="147" y="-119"/>
      <point x="161" y="-12" type="curve"/>
      <point x="108" y="-14"/>
      <point x="81" y="13"/>
      <point x="81" y="46" type="curve" smooth="yes"/>
      <point x="81" y="80"/>
      <point x="108" y="106"/>
      <point x="141" y="106" type="curve" smooth="yes"/>
      <point x="174" y="106"/>
      <point x="201" y="80"/>
      <point x="201" y="23" type="curve" smooth="yes"/>
      <point x="201" y="-106"/>
      <point x="142" y="-206"/>
      <point x="48" y="-237" type="curve"/>
    </contour>
    <contour>
      <point x="139" y="418" type="curve" smooth="yes"/>
      <point x="172" y="418"/>
      <point x="196" y="440"/>
      <point x="196" y="472" type="curve" smooth="yes"/>
      <point x="196" y="505"/>
      <point x="172" y="529"/>
      <point x="139" y="529" type="curve" smooth="yes"/>
      <point x="106" y="529"/>
      <point x="85" y="505"/>
      <point x="85" y="472" type="curve" smooth="yes"/>
      <point x="85" y="440"/>
      <point x="106" y="418"/>
    </contour>
  </outline>
</glyph>
<glyph name="A" format="1">
  <advance width="759"/>
  <unicode hex="0041"/>
  <outline>
    <contour>
      <point x="223" y="281" type="line"/>
      <point x="252" y="280" type="line" smooth="yes"/>
      <point x="314" y="278"/>
      <point x="386" y="278"/>
      <point x="462" y="280" type="curve" smooth="yes"/>
      <point x="500" y="281" type="line"/>
      <point x="500" y="245" type="line"/>
      <point x="469" y="246" type="line" smooth="yes"/>
      <point x="405" y="248"/>
      <point x="309" y="248"/>
      <point x="247" y="246" type="curve" smooth="yes"/>
      <point x="216" y="245" type="line"/>
    </contour>
    <contour>
      <point x="360" y="744" type="line"/>
      <point x="388" y="744" type="line"/>
      <point x="594" y="134" type="line" smooth="yes"/>
      <point x="619" y="59"/>
      <point x="654" y="37"/>
      <point x="702" y="34" type="curve" smooth="yes"/>
      <point x="759" y="30" type="line"/>
      <point x="759" y="0" type="line"/>
      <point x="574" y="5" type="line"/>
      <point x="395" y="0" type="line"/>
      <point x="395" y="30" type="line"/>
      <point x="432" y="33" type="line" smooth="yes"/>
      <point x="508" y="39"/>
      <point x="513" y="74"/>
      <point x="488" y="146" type="curve" smooth="yes"/>
      <point x="333" y="596" type="line"/>
      <point x="352" y="596" type="line"/>
      <point x="204" y="129" type="line" smooth="yes"/>
      <point x="187" y="76"/>
      <point x="199" y="46"/>
      <point x="249" y="38" type="curve" smooth="yes"/>
      <point x="299" y="30" type="line"/>
      <point x="299" y="0" type="line"/>
      <point x="147" y="5" type="line"/>
      <point x="0" y="0" type="line"/>
      <point x="0" y="30" type="line"/>
      <point x="55" y="42" type="line" smooth="yes"/>
      <point x="100" y="52"/>
      <point x="137" y="73"/>
      <point x="159" y="139" type="curve" smooth="yes"/>
    </contour>
  </outline>
</glyph>
<glyph name="B" format="1">
  <advance width="752"/>
  <unicode hex="0042"/>
  <outline>
    <contour>
      <point x="282" y="672" type="line"/>
      <point x="306" y="618" type="line"/>
      <point x="306" y="645" type="line" smooth="yes"/>
      <point x="306" y="685"/>
      <point x="319" y="699"/>
      <point x="387" y="699" type="curve" smooth="yes"/>
      <point x="429" y="699" type="line" smooth="yes"/>
      <point x="498" y="699"/>
      <point x="566" y="657"/>
      <point x="567" y="528" type="curve" smooth="yes"/>
      <point x="568" y="414"/>
      <point x="517" y="393"/>
      <point x="375" y="393" type="curve" smooth="yes"/>
      <point x="282" y="393" type="line"/>
      <point x="282" y="363" type="line"/>
      <point x="444" y="363" type="line" smooth="yes"/>
      <point x="571" y="363"/>
      <point x="594" y="293"/>
      <point x="594" y="204" type="curve" smooth="yes"/>
      <point x="594" y="70"/>
      <point x="542" y="25"/>
      <point x="455" y="30" type="curve" smooth="yes"/>
      <point x="385" y="34" type="line" smooth="yes"/>
      <point x="318" y="38"/>
      <point x="305" y="52"/>
      <point x="305" y="93" type="curve" smooth="yes"/>
      <point x="305" y="119" type="line"/>
      <point x="281" y="61" type="line"/>
      <point x="305" y="25" type="line"/>
      <point x="306" y="708" type="line"/>
    </contour>
    <contour>
      <point x="684" y="673"/>
      <point x="537" y="732"/>
      <point x="420" y="732" type="curve" smooth="yes"/>
      <point x="51" y="732" type="line"/>
      <point x="51" y="702" type="line"/>
      <point x="120" y="699" type="line" smooth="yes"/>
      <point x="188" y="696"/>
      <point x="201" y="685"/>
      <point x="201" y="645" type="curve" smooth="yes"/>
      <point x="201" y="618" type="line"/>
      <point x="225" y="672" type="line"/>
      <point x="201" y="708" type="line"/>
      <point x="200" y="25" type="line"/>
      <point x="224" y="61" type="line"/>
      <point x="200" y="119" type="line"/>
      <point x="200" y="93" type="line" smooth="yes"/>
      <point x="200" y="52"/>
      <point x="187" y="38"/>
      <point x="120" y="34" type="curve" smooth="yes"/>
      <point x="50" y="30" type="line"/>
      <point x="50" y="0" type="line"/>
      <point x="455" y="0" type="line" smooth="yes"/>
      <point x="573" y="0"/>
      <point x="723" y="25"/>
      <point x="723" y="189" type="curve" smooth="yes"/>
      <point x="723" y="313"/>
      <point x="637" y="381"/>
      <point x="489" y="381" type="curve"/>
      <point x="489" y="366" type="line"/>
      <point x="594" y="389"/>
      <point x="684" y="440"/>
      <point x="684" y="542" type="curve" smooth="yes"/>
    </contour>
  </outline>
</glyph>
<glyph name="C" format="1">
  <advance width="770"/>
  <unicode hex="0043"/>
  <outline>
    <contour>
      <point x="645" y="390" type="line"/>
      <point x="645" y="502"/>
      <point x="547" y="711"/>
      <point x="393" y="711" type="curve" smooth="yes"/>
      <point x="253" y="711"/>
      <point x="195" y="539"/>
      <point x="195" y="380" type="curve" smooth="yes"/>
      <point x="195" y="199"/>
      <point x="271" y="21"/>
      <point x="435" y="21" type="curve" smooth="yes"/>
      <point x="560" y="21"/>
      <point x="644" y="123"/>
      <point x="651" y="276" type="curve"/>
      <point x="684" y="276" type="line"/>
      <point x="678" y="126"/>
      <point x="611" y="-12"/>
      <point x="424" y="-12" type="curve" smooth="yes"/>
      <point x="226" y="-12"/>
      <point x="80" y="143"/>
      <point x="80" y="366" type="curve" smooth="yes"/>
      <point x="80" y="611"/>
      <point x="255" y="744"/>
      <point x="404" y="744" type="curve" smooth="yes"/>
      <point x="486" y="744"/>
      <point x="550" y="704"/>
      <point x="615" y="630" type="curve"/>
      <point x="585" y="633" type="line"/>
      <point x="651" y="732" type="line"/>
      <point x="684" y="732" type="line"/>
      <point x="690" y="390" type="line"/>
    </contour>
  </outline>
</glyph>
<glyph name="D" format="1">
  <advance width="867"/>
  <unicode hex="0044"/>
  <outline>
    <contour>
      <point x="303" y="39" type="line"/>
      <point x="276" y="75" type="line"/>
      <point x="303" y="135" type="line"/>
      <point x="303" y="111" type="line" smooth="yes"/>
      <point x="302" y="35"/>
      <point x="328" y="33"/>
      <point x="492" y="33" type="curve" smooth="yes"/>
      <point x="597" y="33"/>
      <point x="705" y="138"/>
      <point x="705" y="367" type="curve" smooth="yes"/>
      <point x="705" y="612"/>
      <point x="582" y="699"/>
      <point x="480" y="699" type="curve" smooth="yes"/>
      <point x="326" y="699"/>
      <point x="303" y="696"/>
      <point x="303" y="627" type="curve" smooth="yes"/>
      <point x="303" y="603" type="line"/>
      <point x="276" y="657" type="line"/>
      <point x="303" y="693" type="line"/>
    </contour>
    <contour>
      <point x="48" y="0" type="line"/>
      <point x="48" y="33" type="line"/>
      <point x="117" y="39" type="line" smooth="yes"/>
      <point x="184" y="45"/>
      <point x="198" y="67"/>
      <point x="198" y="111" type="curve" smooth="yes"/>
      <point x="198" y="132" type="line"/>
      <point x="222" y="75" type="line"/>
      <point x="198" y="39" type="line"/>
      <point x="198" y="693" type="line"/>
      <point x="222" y="657" type="line"/>
      <point x="198" y="603" type="line"/>
      <point x="198" y="627" type="line" smooth="yes"/>
      <point x="198" y="670"/>
      <point x="184" y="687"/>
      <point x="117" y="693" type="curve" smooth="yes"/>
      <point x="48" y="699" type="line"/>
      <point x="48" y="732" type="line"/>
      <point x="501" y="732" type="line" smooth="yes"/>
      <point x="678" y="732"/>
      <point x="819" y="550"/>
      <point x="819" y="369" type="curve" smooth="yes"/>
      <point x="819" y="196"/>
      <point x="690" y="0"/>
      <point x="498" y="0" type="curve" smooth="yes"/>
    </contour>
  </outline>
</glyph>
<glyph name="E" format="1">
  <advance width="777"/>
  <unicode hex="0045"/>
  <outline>
    <contour>
      <point x="192" y="24" type="line"/>
      <point x="192" y="708" type="line"/>
      <point x="216" y="672" type="line"/>
      <point x="192" y="582" type="line"/>
      <point x="192" y="603" type="line" smooth="yes"/>
      <point x="192" y="644"/>
      <point x="178" y="702"/>
      <point x="111" y="702" type="curve" smooth="yes"/>
      <point x="54" y="702" type="line"/>
      <point x="54" y="732" type="line"/>
      <point x="672" y="732" type="line"/>
      <point x="702" y="489" type="line"/>
      <point x="669" y="480" type="line"/>
      <point x="654" y="561"/>
      <point x="597" y="705"/>
      <point x="396" y="705" type="curve" smooth="yes"/>
      <point x="309" y="705"/>
      <point x="297" y="678"/>
      <point x="297" y="633" type="curve" smooth="yes"/>
      <point x="297" y="603" type="line"/>
      <point x="258" y="672" type="line"/>
      <point x="297" y="708" type="line"/>
      <point x="297" y="24" type="line"/>
      <point x="258" y="60" type="line"/>
      <point x="297" y="108" type="line"/>
      <point x="297" y="87" type="line" smooth="yes"/>
      <point x="297" y="56"/>
      <point x="309" y="27"/>
      <point x="412" y="27" type="curve" smooth="yes"/>
      <point x="549" y="27"/>
      <point x="622" y="78"/>
      <point x="675" y="189" type="curve" smooth="yes"/>
      <point x="711" y="264" type="line"/>
      <point x="729" y="261" type="line"/>
      <point x="705" y="0" type="line"/>
      <point x="48" y="0" type="line"/>
      <point x="48" y="30" type="line"/>
      <point x="111" y="33" type="line" smooth="yes"/>
      <point x="178" y="36"/>
      <point x="192" y="47"/>
      <point x="192" y="87" type="curve" smooth="yes"/>
      <point x="192" y="108" type="line"/>
      <point x="216" y="60" type="line"/>
    </contour>
    <contour>
      <point x="288" y="375" type="line"/>
      <point x="351" y="375" type="line" smooth="yes"/>
      <point x="453" y="375"/>
      <point x="474" y="414"/>
      <point x="495" y="543" type="curve"/>
      <point x="519" y="543" type="line"/>
      <point x="508" y="437"/>
      <point x="512" y="244"/>
      <point x="513" y="165" type="curve"/>
      <point x="489" y="165" type="line"/>
      <point x="486" y="225" type="line"/>
      <point x="483" y="300"/>
      <point x="439" y="348"/>
      <point x="351" y="348" type="curve" smooth="yes"/>
      <point x="288" y="348" type="line"/>
    </contour>
  </outline>
</glyph>
<glyph name="F" format="1">
  <advance width="743"/>
  <unicode hex="0046"/>
  <outline>
    <contour>
      <point x="200" y="25" type="line"/>
      <point x="201" y="708" type="line"/>
      <point x="225" y="672" type="line"/>
      <point x="201" y="618" type="line"/>
      <point x="201" y="645" type="line" smooth="yes"/>
      <point x="201" y="685"/>
      <point x="187" y="696"/>
      <point x="120" y="699" type="curve" smooth="yes"/>
      <point x="51" y="702" type="line"/>
      <point x="51" y="732" type="line"/>
      <point x="249" y="726" type="line"/>
      <point x="255" y="726" type="line"/>
      <point x="687" y="732" type="line"/>
      <point x="702" y="477" type="line"/>
      <point x="687" y="477" type="line"/>
      <point x="672" y="534" type="line" smooth="yes"/>
      <point x="645" y="638"/>
      <point x="578" y="702"/>
      <point x="420" y="702" type="curve" smooth="yes"/>
      <point x="318" y="702"/>
      <point x="306" y="675"/>
      <point x="306" y="645" type="curve" smooth="yes"/>
      <point x="306" y="618" type="line"/>
      <point x="267" y="672" type="line"/>
      <point x="306" y="708" type="line"/>
      <point x="305" y="25" type="line"/>
      <point x="268" y="61" type="line"/>
      <point x="305" y="114" type="line"/>
      <point x="305" y="88" type="line" smooth="yes"/>
      <point x="305" y="54"/>
      <point x="328" y="37"/>
      <point x="414" y="33" type="curve" smooth="yes"/>
      <point x="475" y="30" type="line"/>
      <point x="476" y="0" type="line"/>
      <point x="50" y="0" type="line"/>
      <point x="50" y="30" type="line"/>
      <point x="120" y="34" type="line" smooth="yes"/>
      <point x="186" y="38"/>
      <point x="200" y="48"/>
      <point x="200" y="88" type="curve" smooth="yes"/>
      <point x="200" y="114" type="line"/>
      <point x="224" y="61" type="line"/>
    </contour>
    <contour>
      <point x="297" y="393" type="line"/>
      <point x="387" y="393" type="line" smooth="yes"/>
      <point x="465" y="393"/>
      <point x="488" y="456"/>
      <point x="495" y="525" type="curve" smooth="yes"/>
      <point x="501" y="582" type="line"/>
      <point x="531" y="582" type="line"/>
      <point x="519" y="471"/>
      <point x="518" y="362"/>
      <point x="528" y="177" type="curve"/>
      <point x="498" y="177" type="line"/>
      <point x="495" y="222" type="line" smooth="yes"/>
      <point x="489" y="317"/>
      <point x="449" y="366"/>
      <point x="387" y="366" type="curve" smooth="yes"/>
      <point x="297" y="366" type="line"/>
    </contour>
  </outline>
</glyph>
<glyph name="G" format="1">
  <advance width="837"/>
  <unicode hex="0047"/>
  <outline>
    <contour>
      <point x="612" y="390" type="line"/>
      <point x="612" y="502"/>
      <point x="514" y="705"/>
      <point x="360" y="705" type="curve" smooth="yes"/>
      <point x="220" y="705"/>
      <point x="162" y="539"/>
      <point x="162" y="381" type="curve" smooth="yes"/>
      <point x="162" y="199"/>
      <point x="238" y="27"/>
      <point x="403" y="27" type="curve" smooth="yes"/>
      <point x="521" y="27"/>
      <point x="610" y="115"/>
      <point x="618" y="276" type="curve"/>
      <point x="657" y="276" type="line"/>
      <point x="651" y="127"/>
      <point x="579" y="-12"/>
      <point x="391" y="-12" type="curve" smooth="yes"/>
      <point x="193" y="-12"/>
      <point x="48" y="142"/>
      <point x="48" y="367" type="curve" smooth="yes"/>
      <point x="48" y="615"/>
      <point x="224" y="744"/>
      <point x="371" y="744" type="curve" smooth="yes"/>
      <point x="453" y="744"/>
      <point x="517" y="704"/>
      <point x="582" y="630" type="curve"/>
      <point x="552" y="633" type="line"/>
      <point x="618" y="732" type="line"/>
      <point x="651" y="732" type="line"/>
      <point x="651" y="390" type="line"/>
    </contour>
    <contour>
      <point x="629" y="-12" type="line"/>
      <point x="570" y="66" type="line"/>
      <point x="570" y="243" type="line" smooth="yes"/>
      <point x="570" y="280"/>
      <point x="547" y="292"/>
      <point x="492" y="297" type="curve" smooth="yes"/>
      <point x="423" y="303" type="line"/>
      <point x="423" y="333" type="line"/>
      <point x="615" y="327" type="line"/>
      <point x="618" y="327" type="line"/>
      <point x="789" y="333" type="line"/>
      <point x="789" y="303" type="line"/>
      <point x="744" y="297" type="line" smooth="yes"/>
      <point x="683" y="289"/>
      <point x="663" y="281"/>
      <point x="663" y="243" type="curve" smooth="yes"/>
      <point x="663" y="-12" type="line"/>
    </contour>
  </outline>
</glyph>
<glyph name="H" format="1">
  <advance width="895"/>
  <unicode hex="0048"/>
  <outline>
    <contour>
      <point x="249" y="366" type="line"/>
      <point x="249" y="414" type="line"/>
      <point x="651" y="414" type="line"/>
      <point x="651" y="366" type="line"/>
    </contour>
    <contour>
      <point x="291" y="27" type="line"/>
      <point x="273" y="60" type="line"/>
      <point x="291" y="120" type="line"/>
      <point x="291" y="96" type="line" smooth="yes"/>
      <point x="291" y="51"/>
      <point x="306" y="42"/>
      <point x="372" y="36" type="curve" smooth="yes"/>
      <point x="444" y="30" type="line"/>
      <point x="444" y="0" type="line"/>
      <point x="48" y="0" type="line"/>
      <point x="48" y="30" type="line"/>
      <point x="120" y="36" type="line" smooth="yes"/>
      <point x="186" y="42"/>
      <point x="198" y="51"/>
      <point x="198" y="96" type="curve" smooth="yes"/>
      <point x="198" y="120" type="line"/>
      <point x="225" y="60" type="line"/>
      <point x="198" y="27" type="line"/>
      <point x="198" y="705" type="line"/>
      <point x="225" y="672" type="line"/>
      <point x="198" y="615" type="line"/>
      <point x="198" y="642" type="line" smooth="yes"/>
      <point x="198" y="687"/>
      <point x="186" y="690"/>
      <point x="120" y="696" type="curve" smooth="yes"/>
      <point x="51" y="702" type="line"/>
      <point x="51" y="732" type="line"/>
      <point x="438" y="732" type="line"/>
      <point x="438" y="702" type="line"/>
      <point x="372" y="696" type="line" smooth="yes"/>
      <point x="306" y="690"/>
      <point x="291" y="687"/>
      <point x="291" y="642" type="curve" smooth="yes"/>
      <point x="291" y="615" type="line"/>
      <point x="273" y="672" type="line"/>
      <point x="291" y="705" type="line"/>
    </contour>
    <contour>
      <point x="708" y="27" type="line"/>
      <point x="690" y="60" type="line"/>
      <point x="708" y="120" type="line"/>
      <point x="708" y="96" type="line" smooth="yes"/>
      <point x="708" y="53"/>
      <point x="723" y="41"/>
      <point x="789" y="36" type="curve" smooth="yes"/>
      <point x="864" y="30" type="line"/>
      <point x="864" y="0" type="line"/>
      <point x="468" y="0" type="line"/>
      <point x="468" y="30" type="line"/>
      <point x="537" y="36" type="line" smooth="yes"/>
      <point x="603" y="42"/>
      <point x="615" y="51"/>
      <point x="615" y="96" type="curve" smooth="yes"/>
      <point x="615" y="120" type="line"/>
      <point x="642" y="60" type="line"/>
      <point x="615" y="27" type="line"/>
      <point x="615" y="705" type="line"/>
      <point x="642" y="672" type="line"/>
      <point x="615" y="615" type="line"/>
      <point x="615" y="642" type="line" smooth="yes"/>
      <point x="615" y="687"/>
      <point x="603" y="690"/>
      <point x="537" y="696" type="curve" smooth="yes"/>
      <point x="468" y="702" type="line"/>
      <point x="468" y="732" type="line"/>
      <point x="855" y="732" type="line"/>
      <point x="855" y="702" type="line"/>
      <point x="789" y="696" type="line" smooth="yes"/>
      <point x="723" y="690"/>
      <point x="708" y="687"/>
      <point x="708" y="642" type="curve" smooth="yes"/>
      <point x="708" y="615" type="line"/>
      <point x="690" y="672" type="line"/>
      <point x="708" y="705" type="line"/>
    </contour>
  </outline>
</glyph>
<glyph name="I" format="1">
  <advance width="495"/>
  <unicode hex="0049"/>
  <outline>
    <contour>
      <point x="291" y="96" type="line" smooth="yes"/>
      <point x="291" y="51"/>
      <point x="303" y="42"/>
      <point x="372" y="36" type="curve" smooth="yes"/>
      <point x="447" y="30" type="line"/>
      <point x="447" y="0" type="line"/>
      <point x="48" y="0" type="line"/>
      <point x="48" y="30" type="line"/>
      <point x="120" y="36" type="line" smooth="yes"/>
      <point x="186" y="42"/>
      <point x="198" y="51"/>
      <point x="198" y="96" type="curve" smooth="yes"/>
      <point x="198" y="642" type="line" smooth="yes"/>
      <point x="198" y="687"/>
      <point x="186" y="690"/>
      <point x="120" y="696" type="curve" smooth="yes"/>
      <point x="51" y="702" type="line"/>
      <point x="51" y="732" type="line"/>
      <point x="438" y="732" type="line"/>
      <point x="438" y="702" type="line"/>
      <point x="372" y="696" type="line" smooth="yes"/>
      <point x="303" y="690"/>
      <point x="291" y="687"/>
      <point x="291" y="642" type="curve" smooth="yes"/>
    </contour>
  </outline>
</glyph>
<glyph name="J" format="1">
  <advance width="636"/>
  <unicode hex="004A"/>
  <outline>
    <contour>
      <point x="450" y="183" type="line" smooth="yes"/>
      <point x="450" y="102"/>
      <point x="374" y="-12"/>
      <point x="236" y="-12" type="curve" smooth="yes"/>
      <point x="145" y="-12"/>
      <point x="36" y="37"/>
      <point x="36" y="164" type="curve" smooth="yes"/>
      <point x="36" y="228"/>
      <point x="64" y="273"/>
      <point x="120" y="273" type="curve" smooth="yes"/>
      <point x="170" y="273"/>
      <point x="207" y="236"/>
      <point x="207" y="186" type="curve" smooth="yes"/>
      <point x="207" y="145"/>
      <point x="181" y="87"/>
      <point x="97" y="87" type="curve"/>
      <point x="108" y="96" type="line"/>
      <point x="130" y="54"/>
      <point x="158" y="21"/>
      <point x="221" y="21" type="curve" smooth="yes"/>
      <point x="318" y="21"/>
      <point x="345" y="100"/>
      <point x="345" y="201" type="curve" smooth="yes"/>
      <point x="345" y="642" type="line" smooth="yes"/>
      <point x="345" y="684"/>
      <point x="336" y="690"/>
      <point x="267" y="696" type="curve" smooth="yes"/>
      <point x="195" y="702" type="line"/>
      <point x="195" y="732" type="line"/>
      <point x="600" y="732" type="line"/>
      <point x="600" y="702" type="line"/>
      <point x="531" y="696" type="line" smooth="yes"/>
      <point x="465" y="690"/>
      <point x="450" y="684"/>
      <point x="450" y="642" type="curve" smooth="yes"/>
    </contour>
  </outline>
</glyph>
<glyph name="K" format="1">
  <advance width="933"/>
  <unicode hex="004B"/>
  <outline>
    <contour>
      <point x="291" y="27" type="line"/>
      <point x="273" y="60" type="line"/>
      <point x="291" y="120" type="line"/>
      <point x="291" y="96" type="line" smooth="yes"/>
      <point x="291" y="53"/>
      <point x="306" y="42"/>
      <point x="372" y="36" type="curve" smooth="yes"/>
      <point x="437" y="30" type="line"/>
      <point x="437" y="0" type="line"/>
      <point x="48" y="0" type="line"/>
      <point x="48" y="30" type="line"/>
      <point x="120" y="36" type="line" smooth="yes"/>
      <point x="186" y="42"/>
      <point x="198" y="51"/>
      <point x="198" y="96" type="curve" smooth="yes"/>
      <point x="198" y="120" type="line"/>
      <point x="225" y="60" type="line"/>
      <point x="198" y="27" type="line"/>
      <point x="198" y="705" type="line"/>
      <point x="225" y="672" type="line"/>
      <point x="198" y="615" type="line"/>
      <point x="198" y="642" type="line" smooth="yes"/>
      <point x="198" y="687"/>
      <point x="186" y="690"/>
      <point x="120" y="696" type="curve" smooth="yes"/>
      <point x="51" y="702" type="line"/>
      <point x="51" y="732" type="line"/>
      <point x="438" y="732" type="line"/>
      <point x="438" y="702" type="line"/>
      <point x="372" y="696" type="line" smooth="yes"/>
      <point x="306" y="690"/>
      <point x="291" y="687"/>
      <point x="291" y="642" type="curve" smooth="yes"/>
      <point x="291" y="615" type="line"/>
      <point x="273" y="672" type="line"/>
      <point x="291" y="705" type="line"/>
    </contour>
    <contour>
      <point x="696" y="108" type="line" smooth="yes"/>
      <point x="728" y="65"/>
      <point x="749" y="41"/>
      <point x="810" y="36" type="curve" smooth="yes"/>
      <point x="885" y="30" type="line"/>
      <point x="885" y="0" type="line"/>
      <point x="496" y="0" type="line"/>
      <point x="496" y="30" type="line"/>
      <point x="558" y="38" type="line" smooth="yes"/>
      <point x="589" y="42"/>
      <point x="590" y="59"/>
      <point x="570" y="87" type="curve" smooth="yes"/>
      <point x="357" y="384" type="line"/>
      <point x="441" y="462" type="line"/>
    </contour>
    <contour>
      <point x="273" y="346" type="line"/>
      <point x="604" y="646" type="line" smooth="yes"/>
      <point x="644" y="682"/>
      <point x="626" y="691"/>
      <point x="573" y="697" type="curve" smooth="yes"/>
      <point x="531" y="702" type="line"/>
      <point x="531" y="732" type="line"/>
      <point x="858" y="732" type="line"/>
      <point x="858" y="702" type="line"/>
      <point x="768" y="687" type="line" smooth="yes"/>
      <point x="705" y="676"/>
      <point x="682" y="664"/>
      <point x="646" y="632" type="curve" smooth="yes"/>
      <point x="279" y="303" type="line"/>
    </contour>
  </outline>
</glyph>
<glyph name="L" format="1">
  <advance width="757"/>
  <unicode hex="004C"/>
  <outline>
    <contour>
      <point x="306" y="93" type="line" smooth="yes"/>
      <point x="306" y="61"/>
      <point x="318" y="30"/>
      <point x="424" y="30" type="curve" smooth="yes"/>
      <point x="563" y="30"/>
      <point x="610" y="83"/>
      <point x="645" y="198" type="curve" smooth="yes"/>
      <point x="674" y="294" type="line"/>
      <point x="707" y="293" type="line"/>
      <point x="677" y="0" type="line"/>
      <point x="50" y="0" type="line"/>
      <point x="50" y="30" type="line"/>
      <point x="120" y="34" type="line" smooth="yes"/>
      <point x="187" y="38"/>
      <point x="201" y="52"/>
      <point x="201" y="93" type="curve" smooth="yes"/>
      <point x="201" y="645" type="line" smooth="yes"/>
      <point x="201" y="685"/>
      <point x="187" y="696"/>
      <point x="120" y="699" type="curve" smooth="yes"/>
      <point x="51" y="702" type="line"/>
      <point x="51" y="732" type="line"/>
      <point x="456" y="732" type="line"/>
      <point x="456" y="702" type="line"/>
      <point x="384" y="699" type="line" smooth="yes"/>
      <point x="318" y="696"/>
      <point x="306" y="685"/>
      <point x="306" y="645" type="curve" smooth="yes"/>
    </contour>
  </outline>
</glyph>
<glyph name="M" format="1">
  <advance width="1041"/>
  <unicode hex="004D"/>
  <outline>
    <contour>
      <point x="843" y="25" type="line"/>
      <point x="819" y="61" type="line"/>
      <point x="843" y="132" type="line"/>
      <point x="843" y="106" type="line" smooth="yes"/>
      <point x="843" y="65"/>
      <point x="856" y="49"/>
      <point x="923" y="41" type="curve" smooth="yes"/>
      <point x="993" y="33" type="line"/>
      <point x="993" y="0" type="line"/>
      <point x="793" y="5" type="line"/>
      <point x="788" y="5" type="line"/>
      <point x="590" y="0" type="line"/>
      <point x="590" y="33" type="line"/>
      <point x="658" y="41" type="line" smooth="yes"/>
      <point x="725" y="49"/>
      <point x="738" y="65"/>
      <point x="738" y="106" type="curve" smooth="yes"/>
      <point x="738" y="132" type="line"/>
      <point x="762" y="61" type="line"/>
      <point x="738" y="25" type="line"/>
      <point x="738" y="717" type="line"/>
      <point x="744" y="708" type="line"/>
      <point x="497" y="9" type="line"/>
      <point x="488" y="9" type="line"/>
      <point x="255" y="702" type="line"/>
      <point x="261" y="714" type="line"/>
      <point x="260" y="136" type="line" smooth="yes"/>
      <point x="260" y="68"/>
      <point x="270" y="54"/>
      <point x="335" y="44" type="curve" smooth="yes"/>
      <point x="408" y="33" type="line"/>
      <point x="408" y="0" type="line"/>
      <point x="83" y="0" type="line"/>
      <point x="83" y="33" type="line"/>
      <point x="161" y="43" type="line" smooth="yes"/>
      <point x="196" y="47"/>
      <point x="210" y="61"/>
      <point x="210" y="135" type="curve" smooth="yes"/>
      <point x="210" y="621" type="line" smooth="yes"/>
      <point x="210" y="669"/>
      <point x="175" y="693"/>
      <point x="129" y="696" type="curve" smooth="yes"/>
      <point x="48" y="702" type="line"/>
      <point x="48" y="732" type="line"/>
      <point x="369" y="732" type="line"/>
      <point x="543" y="173" type="line"/>
      <point x="519" y="190" type="line"/>
      <point x="708" y="732" type="line"/>
      <point x="993" y="732" type="line"/>
      <point x="993" y="702" type="line"/>
      <point x="924" y="699" type="line" smooth="yes"/>
      <point x="856" y="696"/>
      <point x="843" y="685"/>
      <point x="843" y="645" type="curve" smooth="yes"/>
      <point x="843" y="618" type="line"/>
      <point x="819" y="672" type="line"/>
      <point x="843" y="708" type="line"/>
    </contour>
  </outline>
</glyph>
<glyph name="N" format="1">
  <advance width="956"/>
  <unicode hex="004E"/>
  <outline>
    <contour>
      <point x="51" y="732" type="line"/>
      <point x="306" y="732" type="line"/>
      <point x="709" y="206" type="line"/>
      <point x="692" y="183" type="line"/>
      <point x="690" y="552" type="line" smooth="yes"/>
      <point x="690" y="642"/>
      <point x="686" y="688"/>
      <point x="624" y="693" type="curve" smooth="yes"/>
      <point x="507" y="702" type="line"/>
      <point x="507" y="732" type="line"/>
      <point x="906" y="732" type="line"/>
      <point x="906" y="702" type="line"/>
      <point x="810" y="693" type="line" smooth="yes"/>
      <point x="766" y="689"/>
      <point x="741" y="642"/>
      <point x="741" y="552" type="curve" smooth="yes"/>
      <point x="741" y="-12" type="line"/>
      <point x="726" y="-12" type="line"/>
      <point x="237" y="621" type="line"/>
      <point x="264" y="654" type="line"/>
      <point x="264" y="135" type="line" smooth="yes"/>
      <point x="264" y="77"/>
      <point x="290" y="50"/>
      <point x="339" y="45" type="curve" smooth="yes"/>
      <point x="471" y="30" type="line"/>
      <point x="471" y="0" type="line"/>
      <point x="87" y="0" type="line"/>
      <point x="87" y="33" type="line"/>
      <point x="165" y="40" type="line" smooth="yes"/>
      <point x="201" y="43"/>
      <point x="213" y="64"/>
      <point x="213" y="135" type="curve" smooth="yes"/>
      <point x="213" y="693" type="line"/>
      <point x="225" y="618" type="line"/>
      <point x="198" y="657" type="line" smooth="yes"/>
      <point x="180" y="682"/>
      <point x="166" y="686"/>
      <point x="132" y="690" type="curve" smooth="yes"/>
      <point x="51" y="699" type="line"/>
    </contour>
  </outline>
</glyph>
<glyph name="O" format="1">
  <advance width="750"/>
  <unicode hex="004F"/>
  <outline>
    <contour>
      <point x="573" y="744"/>
      <point x="702" y="549"/>
      <point x="702" y="372" type="curve" smooth="yes"/>
      <point x="702" y="195"/>
      <point x="573" y="-12"/>
      <point x="372" y="-12" type="curve" smooth="yes"/>
      <point x="171" y="-12"/>
      <point x="48" y="195"/>
      <point x="48" y="372" type="curve" smooth="yes"/>
      <point x="48" y="549"/>
      <point x="171" y="744"/>
      <point x="372" y="744" type="curve" smooth="yes"/>
    </contour>
    <contour>
      <point x="228" y="705"/>
      <point x="162" y="609"/>
      <point x="162" y="372" type="curve" smooth="yes"/>
      <point x="162" y="135"/>
      <point x="228" y="27"/>
      <point x="372" y="27" type="curve" smooth="yes"/>
      <point x="516" y="27"/>
      <point x="588" y="135"/>
      <point x="588" y="372" type="curve" smooth="yes"/>
      <point x="588" y="609"/>
      <point x="516" y="705"/>
      <point x="372" y="705" type="curve" smooth="yes"/>
    </contour>
  </outline>
</glyph>
<glyph name="P" format="1">
  <advance width="723"/>
  <unicode hex="0050"/>
  <outline>
    <contour>
      <point x="444" y="30" type="line"/>
      <point x="375" y="36" type="line" smooth="yes"/>
      <point x="309" y="42"/>
      <point x="294" y="47"/>
      <point x="294" y="96" type="curve" smooth="yes"/>
      <point x="294" y="120" type="line"/>
      <point x="270" y="60" type="line"/>
      <point x="294" y="24" type="line"/>
      <point x="294" y="702" type="line"/>
      <point x="384" y="702" type="line" smooth="yes"/>
      <point x="515" y="702"/>
      <point x="570" y="666"/>
      <point x="570" y="531" type="curve" smooth="yes"/>
      <point x="570" y="396"/>
      <point x="515" y="372"/>
      <point x="384" y="372" type="curve" smooth="yes"/>
      <point x="270" y="372" type="line"/>
      <point x="270" y="342" type="line"/>
      <point x="384" y="342" type="line" smooth="yes"/>
      <point x="570" y="342"/>
      <point x="684" y="414"/>
      <point x="684" y="531" type="curve" smooth="yes"/>
      <point x="684" y="648"/>
      <point x="570" y="732"/>
      <point x="384" y="732" type="curve" smooth="yes"/>
      <point x="39" y="732" type="line"/>
      <point x="39" y="702" type="line"/>
      <point x="108" y="696" type="line" smooth="yes"/>
      <point x="176" y="690"/>
      <point x="189" y="685"/>
      <point x="189" y="642" type="curve" smooth="yes"/>
      <point x="189" y="618" type="line"/>
      <point x="213" y="672" type="line"/>
      <point x="189" y="708" type="line"/>
      <point x="189" y="24" type="line"/>
      <point x="213" y="60" type="line"/>
      <point x="189" y="120" type="line"/>
      <point x="189" y="96" type="line" smooth="yes"/>
      <point x="189" y="47"/>
      <point x="174" y="42"/>
      <point x="108" y="36" type="curve" smooth="yes"/>
      <point x="39" y="30" type="line"/>
      <point x="39" y="0" type="line"/>
      <point x="240" y="6" type="line"/>
      <point x="243" y="6" type="line"/>
      <point x="444" y="0" type="line"/>
    </contour>
  </outline>
</glyph>
<glyph name="Q" format="1">
  <advance width="789"/>
  <unicode hex="0051"/>
  <outline>
    <contour>
      <point x="573" y="744"/>
      <point x="702" y="549"/>
      <point x="702" y="372" type="curve" smooth="yes"/>
      <point x="702" y="194"/>
      <point x="572" y="-12"/>
      <point x="372" y="-12" type="curve" smooth="yes"/>
      <point x="172" y="-12"/>
      <point x="48" y="194"/>
      <point x="48" y="372" type="curve" smooth="yes"/>
      <point x="48" y="550"/>
      <point x="172" y="744"/>
      <point x="372" y="744" type="curve" smooth="yes"/>
    </contour>
    <contour>
      <point x="228" y="705"/>
      <point x="162" y="609"/>
      <point x="162" y="372" type="curve" smooth="yes"/>
      <point x="162" y="135"/>
      <point x="228" y="27"/>
      <point x="372" y="27" type="curve" smooth="yes"/>
      <point x="516" y="27"/>
      <point x="588" y="135"/>
      <point x="588" y="372" type="curve" smooth="yes"/>
      <point x="588" y="609"/>
      <point x="516" y="705"/>
      <point x="372" y="705" type="curve" smooth="yes"/>
    </contour>
    <contour>
      <point x="189" y="75" type="line"/>
      <point x="186" y="183"/>
      <point x="275" y="222"/>
      <point x="351" y="222" type="curve" smooth="yes"/>
      <point x="451" y="222"/>
      <point x="549" y="153"/>
      <point x="552" y="48" type="curve" smooth="yes"/>
      <point x="553" y="2"/>
      <point x="555" y="-84"/>
      <point x="644" y="-84" type="curve" smooth="yes"/>
      <point x="696" y="-84"/>
      <point x="711" y="-54"/>
      <point x="711" y="0" type="curve"/>
      <point x="741" y="0" type="line"/>
      <point x="741" y="-83"/>
      <point x="701" y="-165"/>
      <point x="597" y="-165" type="curve" smooth="yes"/>
      <point x="476" y="-165"/>
      <point x="468" y="-54"/>
      <point x="453" y="24" type="curve" smooth="yes"/>
      <point x="434" y="124"/>
      <point x="411" y="186"/>
      <point x="321" y="186" type="curve" smooth="yes"/>
      <point x="264" y="186"/>
      <point x="219" y="161"/>
      <point x="219" y="75" type="curve"/>
    </contour>
  </outline>
</glyph>
<glyph name="R" format="1">
  <advance width="852"/>
  <unicode hex="0052"/>
  <outline>
    <contour>
      <point x="444" y="30" type="line"/>
      <point x="375" y="36" type="line" smooth="yes"/>
      <point x="307" y="42"/>
      <point x="294" y="52"/>
      <point x="294" y="96" type="curve" smooth="yes"/>
      <point x="294" y="120" type="line"/>
      <point x="270" y="60" type="line"/>
      <point x="294" y="24" type="line"/>
      <point x="294" y="702" type="line"/>
      <point x="384" y="702" type="line" smooth="yes"/>
      <point x="515" y="702"/>
      <point x="570" y="666"/>
      <point x="570" y="531" type="curve" smooth="yes"/>
      <point x="570" y="396"/>
      <point x="515" y="372"/>
      <point x="384" y="372" type="curve" smooth="yes"/>
      <point x="270" y="372" type="line"/>
      <point x="270" y="342" type="line"/>
      <point x="384" y="342" type="line" smooth="yes"/>
      <point x="570" y="342"/>
      <point x="684" y="414"/>
      <point x="684" y="531" type="curve" smooth="yes"/>
      <point x="684" y="648"/>
      <point x="570" y="732"/>
      <point x="384" y="732" type="curve" smooth="yes"/>
      <point x="39" y="732" type="line"/>
      <point x="39" y="702" type="line"/>
      <point x="108" y="696" type="line" smooth="yes"/>
      <point x="176" y="690"/>
      <point x="189" y="685"/>
      <point x="189" y="642" type="curve" smooth="yes"/>
      <point x="189" y="618" type="line"/>
      <point x="213" y="672" type="line"/>
      <point x="189" y="708" type="line"/>
      <point x="189" y="24" type="line"/>
      <point x="213" y="60" type="line"/>
      <point x="189" y="120" type="line"/>
      <point x="189" y="96" type="line" smooth="yes"/>
      <point x="189" y="52"/>
      <point x="176" y="42"/>
      <point x="108" y="36" type="curve" smooth="yes"/>
      <point x="39" y="30" type="line"/>
      <point x="39" y="0" type="line"/>
      <point x="240" y="6" type="line"/>
      <point x="243" y="6" type="line"/>
      <point x="444" y="0" type="line"/>
    </contour>
    <contour>
      <point x="482" y="342"/>
      <point x="522" y="282"/>
      <point x="522" y="237" type="curve" smooth="yes"/>
      <point x="522" y="138" type="line" smooth="yes"/>
      <point x="522" y="63"/>
      <point x="557" y="-12"/>
      <point x="665" y="-12" type="curve" smooth="yes"/>
      <point x="794" y="-12"/>
      <point x="813" y="95"/>
      <point x="813" y="159" type="curve"/>
      <point x="783" y="159" type="line"/>
      <point x="783" y="56"/>
      <point x="743" y="30"/>
      <point x="715" y="30" type="curve" smooth="yes"/>
      <point x="661" y="30"/>
      <point x="661" y="128"/>
      <point x="657" y="171" type="curve" smooth="yes"/>
      <point x="645" y="294"/>
      <point x="528" y="372"/>
      <point x="384" y="372" type="curve"/>
      <point x="384" y="342" type="line"/>
    </contour>
  </outline>
</glyph>
<glyph name="S" format="1">
  <advance width="615"/>
  <unicode hex="0053"/>
  <outline>
    <contour>
      <point x="507" y="510" type="line"/>
      <point x="507" y="744" type="line"/>
      <point x="471" y="744" type="line"/>
      <point x="414" y="645" type="line"/>
      <point x="471" y="615" type="line"/>
      <point x="386" y="721"/>
      <point x="331" y="744"/>
      <point x="265" y="744" type="curve" smooth="yes"/>
      <point x="143" y="744"/>
      <point x="48" y="667"/>
      <point x="48" y="538" type="curve" smooth="yes"/>
      <point x="48" y="460"/>
      <point x="83" y="373"/>
      <point x="213" y="339" type="curve" smooth="yes"/>
      <point x="390" y="292" type="line" smooth="yes"/>
      <point x="478" y="269"/>
      <point x="501" y="207"/>
      <point x="501" y="163" type="curve" smooth="yes"/>
      <point x="501" y="85"/>
      <point x="430" y="18"/>
      <point x="339" y="18" type="curve" smooth="yes"/>
      <point x="235" y="18"/>
      <point x="173" y="105"/>
      <point x="84" y="252" type="curve"/>
      <point x="54" y="252" type="line"/>
      <point x="54" y="-12" type="line"/>
      <point x="87" y="-12" type="line"/>
      <point x="147" y="132" type="line"/>
      <point x="102" y="132" type="line"/>
      <point x="177" y="28"/>
      <point x="241" y="-12"/>
      <point x="336" y="-12" type="curve" smooth="yes"/>
      <point x="478" y="-12"/>
      <point x="567" y="77"/>
      <point x="567" y="217" type="curve" smooth="yes"/>
      <point x="567" y="301"/>
      <point x="535" y="372"/>
      <point x="428" y="402" type="curve" smooth="yes"/>
      <point x="214" y="463" type="line" smooth="yes"/>
      <point x="147" y="482"/>
      <point x="114" y="532"/>
      <point x="114" y="587" type="curve" smooth="yes"/>
      <point x="114" y="673"/>
      <point x="196" y="714"/>
      <point x="255" y="714" type="curve" smooth="yes"/>
      <point x="354" y="714"/>
      <point x="459" y="600"/>
      <point x="477" y="510" type="curve"/>
    </contour>
  </outline>
</glyph>
<glyph name="T" format="1">
  <advance width="735"/>
  <unicode hex="0054"/>
  <outline>
    <contour>
      <point x="414" y="27" type="line"/>
      <point x="396" y="60" type="line"/>
      <point x="414" y="120" type="line"/>
      <point x="414" y="96" type="line" smooth="yes"/>
      <point x="414" y="51"/>
      <point x="429" y="42"/>
      <point x="495" y="36" type="curve"/>
      <point x="570" y="30" type="line"/>
      <point x="570" y="0" type="line"/>
      <point x="369" y="6" type="line"/>
      <point x="366" y="6" type="line"/>
      <point x="171" y="0" type="line"/>
      <point x="171" y="30" type="line"/>
      <point x="243" y="36" type="line"/>
      <point x="309" y="42"/>
      <point x="321" y="51"/>
      <point x="321" y="96" type="curve" smooth="yes"/>
      <point x="321" y="120" type="line"/>
      <point x="348" y="60" type="line"/>
      <point x="321" y="27" type="line"/>
      <point x="321" y="642" type="line" smooth="yes"/>
      <point x="321" y="681"/>
      <point x="311" y="702"/>
      <point x="237" y="702" type="curve" smooth="yes"/>
      <point x="124" y="702"/>
      <point x="114" y="652"/>
      <point x="63" y="420" type="curve"/>
      <point x="39" y="420" type="line"/>
      <point x="54" y="732" type="line"/>
      <point x="681" y="732" type="line"/>
      <point x="696" y="432" type="line"/>
      <point x="672" y="432" type="line"/>
      <point x="623" y="658"/>
      <point x="610" y="702"/>
      <point x="498" y="702" type="curve" smooth="yes"/>
      <point x="426" y="702"/>
      <point x="414" y="684"/>
      <point x="414" y="642" type="curve" smooth="yes"/>
    </contour>
  </outline>
</glyph>
<glyph name="U" format="1">
  <advance width="885"/>
  <unicode hex="0055"/>
  <outline>
    <contour>
      <point x="195" y="642" type="line" smooth="yes"/>
      <point x="195" y="687"/>
      <point x="183" y="690"/>
      <point x="117" y="696" type="curve" smooth="yes"/>
      <point x="48" y="702" type="line"/>
      <point x="48" y="732" type="line"/>
      <point x="243" y="726" type="line"/>
      <point x="435" y="732" type="line"/>
      <point x="435" y="702" type="line"/>
      <point x="369" y="696" type="line" smooth="yes"/>
      <point x="303" y="690"/>
      <point x="288" y="687"/>
      <point x="288" y="642" type="curve" smooth="yes"/>
      <point x="288" y="279" type="line" smooth="yes"/>
      <point x="288" y="122"/>
      <point x="333" y="24"/>
      <point x="471" y="24" type="curve" smooth="yes"/>
      <point x="598" y="24"/>
      <point x="663" y="108"/>
      <point x="663" y="288" type="curve" smooth="yes"/>
      <point x="663" y="642" type="line"/>
      <point x="663" y="687"/>
      <point x="657" y="689"/>
      <point x="597" y="696" type="curve" smooth="yes"/>
      <point x="549" y="702" type="line"/>
      <point x="549" y="732" type="line"/>
      <point x="681" y="726" type="line"/>
      <point x="822" y="732" type="line"/>
      <point x="822" y="702" type="line"/>
      <point x="777" y="696" type="line" smooth="yes"/>
      <point x="716" y="688"/>
      <point x="711" y="687"/>
      <point x="711" y="642" type="curve"/>
      <point x="711" y="279" type="line" smooth="yes"/>
      <point x="711" y="74"/>
      <point x="627" y="-12"/>
      <point x="458" y="-12" type="curve" smooth="yes"/>
      <point x="288" y="-12"/>
      <point x="195" y="74"/>
      <point x="195" y="270" type="curve" smooth="yes"/>
    </contour>
  </outline>
</glyph>
<glyph name="V" format="1">
  <advance width="759"/>
  <unicode hex="0056"/>
  <outline>
    <contour>
      <point x="402" y="-12" type="line"/>
      <point x="612" y="594" type="line" smooth="yes"/>
      <point x="635" y="659"/>
      <point x="660" y="680"/>
      <point x="705" y="690" type="curve" smooth="yes"/>
      <point x="759" y="702" type="line"/>
      <point x="759" y="732" type="line"/>
      <point x="612" y="726" type="line"/>
      <point x="462" y="732" type="line"/>
      <point x="462" y="702" type="line"/>
      <point x="510" y="693" type="line" smooth="yes"/>
      <point x="561" y="683"/>
      <point x="576" y="656"/>
      <point x="558" y="603" type="curve" smooth="yes"/>
      <point x="408" y="153" type="line"/>
      <point x="426" y="153" type="line"/>
      <point x="273" y="585" type="line" smooth="yes"/>
      <point x="247" y="658"/>
      <point x="252" y="693"/>
      <point x="327" y="699" type="curve" smooth="yes"/>
      <point x="366" y="702" type="line"/>
      <point x="366" y="732" type="line"/>
      <point x="186" y="726" type="line"/>
      <point x="0" y="732" type="line"/>
      <point x="0" y="702" type="line"/>
      <point x="57" y="699" type="line" smooth="yes"/>
      <point x="106" y="696"/>
      <point x="132" y="673"/>
      <point x="159" y="597" type="curve" smooth="yes"/>
      <point x="375" y="-12" type="line"/>
    </contour>
  </outline>
</glyph>
<glyph name="W" format="1">
  <advance width="1170"/>
  <unicode hex="0057"/>
  <outline>
    <contour>
      <point x="813" y="-12" type="line"/>
      <point x="1023" y="594" type="line" smooth="yes"/>
      <point x="1046" y="659"/>
      <point x="1071" y="680"/>
      <point x="1116" y="690" type="curve" smooth="yes"/>
      <point x="1170" y="702" type="line"/>
      <point x="1170" y="732" type="line"/>
      <point x="1023" y="726" type="line"/>
      <point x="873" y="732" type="line"/>
      <point x="873" y="702" type="line"/>
      <point x="921" y="693" type="line" smooth="yes"/>
      <point x="972" y="683"/>
      <point x="987" y="656"/>
      <point x="969" y="603" type="curve" smooth="yes"/>
      <point x="819" y="153" type="line"/>
      <point x="837" y="153" type="line"/>
      <point x="684" y="585" type="line" smooth="yes"/>
      <point x="658" y="658"/>
      <point x="663" y="693"/>
      <point x="738" y="699" type="curve" smooth="yes"/>
      <point x="777" y="702" type="line"/>
      <point x="777" y="732" type="line"/>
      <point x="597" y="726" type="line"/>
      <point x="411" y="732" type="line"/>
      <point x="411" y="702" type="line"/>
      <point x="468" y="699" type="line" smooth="yes"/>
      <point x="517" y="696"/>
      <point x="543" y="673"/>
      <point x="570" y="597" type="curve" smooth="yes"/>
      <point x="786" y="-12" type="line"/>
    </contour>
    <contour>
      <point x="573" y="636" type="line"/>
      <point x="408" y="153" type="line"/>
      <point x="426" y="153" type="line"/>
      <point x="273" y="585" type="line" smooth="yes"/>
      <point x="247" y="658"/>
      <point x="252" y="693"/>
      <point x="327" y="699" type="curve" smooth="yes"/>
      <point x="366" y="702" type="line"/>
      <point x="366" y="732" type="line"/>
      <point x="186" y="726" type="line"/>
      <point x="0" y="732" type="line"/>
      <point x="0" y="702" type="line"/>
      <point x="57" y="699" type="line" smooth="yes"/>
      <point x="106" y="696"/>
      <point x="132" y="673"/>
      <point x="159" y="597" type="curve" smooth="yes"/>
      <point x="375" y="-12" type="line"/>
      <point x="402" y="-12" type="line"/>
      <point x="612" y="624" type="line"/>
    </contour>
  </outline>
</glyph>
<glyph name="X" format="1">
  <advance width="898"/>
  <unicode hex="0058"/>
  <outline>
    <contour>
      <point x="127" y="702"/>
      <point x="144" y="689"/>
      <point x="190" y="626" type="curve" smooth="yes"/>
      <point x="583" y="90" type="line" smooth="yes"/>
      <point x="617" y="44"/>
      <point x="553" y="30"/>
      <point x="462" y="30" type="curve"/>
      <point x="462" y="0" type="line"/>
      <point x="853" y="0" type="line"/>
      <point x="853" y="30" type="line"/>
      <point x="777" y="30"/>
      <point x="744" y="45"/>
      <point x="691" y="118" type="curve" smooth="yes"/>
      <point x="298" y="651" type="line" smooth="yes"/>
      <point x="268" y="693"/>
      <point x="300" y="702"/>
      <point x="412" y="702" type="curve"/>
      <point x="412" y="732" type="line"/>
      <point x="48" y="732" type="line"/>
      <point x="48" y="702" type="line"/>
    </contour>
    <contour>
      <point x="467" y="384" type="line"/>
      <point x="669" y="652" type="line" smooth="yes"/>
      <point x="694" y="685"/>
      <point x="726" y="702"/>
      <point x="806" y="702" type="curve"/>
      <point x="806" y="732" type="line"/>
      <point x="464" y="732" type="line"/>
      <point x="464" y="702" type="line"/>
      <point x="566" y="702"/>
      <point x="601" y="682"/>
      <point x="571" y="641" type="curve" smooth="yes"/>
      <point x="418" y="427" type="line"/>
    </contour>
    <contour>
      <point x="372" y="0" type="line"/>
      <point x="372" y="30" type="line"/>
      <point x="262" y="30"/>
      <point x="229" y="40"/>
      <point x="275" y="105" type="curve" smooth="yes"/>
      <point x="430" y="325" type="line"/>
      <point x="387" y="381" type="line"/>
      <point x="195" y="107" type="line" smooth="yes"/>
      <point x="152" y="46"/>
      <point x="120" y="30"/>
      <point x="45" y="30" type="curve"/>
      <point x="45" y="0" type="line"/>
    </contour>
  </outline>
</glyph>
<glyph name="Y" format="1">
  <advance width="814"/>
  <unicode hex="0059"/>
  <outline>
    <contour>
      <point x="427" y="234" type="line"/>
      <point x="457" y="313" type="line"/>
      <point x="457" y="93" type="line" smooth="yes"/>
      <point x="457" y="52"/>
      <point x="471" y="35"/>
      <point x="538" y="33" type="curve" smooth="yes"/>
      <point x="628" y="30" type="line"/>
      <point x="628" y="0" type="line"/>
      <point x="409" y="6" type="line"/>
      <point x="403" y="6" type="line"/>
      <point x="184" y="0" type="line"/>
      <point x="184" y="30" type="line"/>
      <point x="274" y="33" type="line" smooth="yes"/>
      <point x="340" y="35"/>
      <point x="352" y="52"/>
      <point x="352" y="93" type="curve" smooth="yes"/>
      <point x="352" y="306" type="line"/>
      <point x="361" y="240" type="line"/>
      <point x="180" y="618" type="line" smooth="yes"/>
      <point x="153" y="675"/>
      <point x="131" y="696"/>
      <point x="78" y="699" type="curve" smooth="yes"/>
      <point x="21" y="702" type="line"/>
      <point x="21" y="732" type="line"/>
      <point x="393" y="732" type="line"/>
      <point x="393" y="702" type="line"/>
      <point x="354" y="699" type="line" smooth="yes"/>
      <point x="268" y="692"/>
      <point x="266" y="664"/>
      <point x="300" y="588" type="curve" smooth="yes"/>
      <point x="427" y="303" type="line"/>
      <point x="414" y="303" type="line"/>
      <point x="575" y="594" type="line" smooth="yes"/>
      <point x="604" y="647"/>
      <point x="569" y="687"/>
      <point x="514" y="696" type="curve" smooth="yes"/>
      <point x="478" y="702" type="line"/>
      <point x="478" y="732" type="line"/>
      <point x="778" y="732" type="line"/>
      <point x="778" y="702" type="line"/>
      <point x="721" y="690" type="line" smooth="yes"/>
      <point x="677" y="681"/>
      <point x="651" y="651"/>
      <point x="619" y="591" type="curve" smooth="yes"/>
    </contour>
  </outline>
</glyph>
<glyph name="Z" format="1">
  <advance width="600"/>
  <unicode hex="005A"/>
  <outline>
    <contour>
      <point x="72" y="732" type="line"/>
      <point x="36" y="480" type="line"/>
      <point x="69" y="480" type="line"/>
      <point x="147" y="651"/>
      <point x="183" y="703"/>
      <point x="255" y="702" type="curve" smooth="yes"/>
      <point x="483" y="699" type="line"/>
      <point x="468" y="717" type="line"/>
      <point x="12" y="39" type="line"/>
      <point x="12" y="0" type="line"/>
      <point x="549" y="0" type="line"/>
      <point x="588" y="252" type="line"/>
      <point x="552" y="252" type="line"/>
      <point x="504" y="125"/>
      <point x="432" y="35"/>
      <point x="378" y="36" type="curve" smooth="yes"/>
      <point x="105" y="39" type="line"/>
      <point x="123" y="24" type="line"/>
      <point x="582" y="702" type="line"/>
      <point x="582" y="732" type="line"/>
    </contour>
  </outline>
</glyph>
<glyph name="underscore" format="1">
  <advance width="508"/>
  <unicode hex="005F"/>
  <outline>
    <contour>
      <point x="48" y="0" type="line"/>
      <point x="460" y="0" type="line"/>
      <point x="460" y="30" type="line"/>
      <point x="48" y="30" type="line"/>
    </contour>
  </outline>
</glyph>
<glyph name="a" format="1">
  <advance width="492"/>
  <unicode hex="0061"/>
  <note>
    please god let me die
  </note>
  <outline>
    <contour>
      <point x="399" y="429"/>
      <point x="323" y="492"/>
      <point x="231" y="492" type="curve" smooth="yes"/>
      <point x="133" y="492"/>
      <point x="57" y="421"/>
      <point x="57" y="353" type="curve" smooth="yes"/>
      <point x="57" y="309"/>
      <point x="88" y="288"/>
      <point x="117" y="288" type="curve" smooth="yes"/>
      <point x="150" y="288"/>
      <point x="177" y="315"/>
      <point x="177" y="349" type="curve" smooth="yes"/>
      <point x="177" y="383"/>
      <point x="150" y="408"/>
      <point x="117" y="408" type="curve"/>
      <point x="120" y="381" type="line"/>
      <point x="120" y="438"/>
      <point x="174" y="459"/>
      <point x="224" y="459" type="curve" smooth="yes"/>
      <point x="300" y="459"/>
      <point x="315" y="411"/>
      <point x="315" y="336" type="curve" smooth="yes"/>
      <point x="315" y="75" type="line"/>
      <point x="324" y="36"/>
      <point x="345" y="-12"/>
      <point x="413" y="-12" type="curve" smooth="yes"/>
      <point x="462" y="-12"/>
      <point x="490" y="13"/>
      <point x="489" y="132" type="curve"/>
      <point x="456" y="132" type="line"/>
      <point x="456" y="42"/>
      <point x="446" y="21"/>
      <point x="428" y="21" type="curve" smooth="yes"/>
      <point x="410" y="21"/>
      <point x="399" y="41"/>
      <point x="399" y="90" type="curve" smooth="yes"/>
      <point x="399" y="354" type="line" smooth="yes"/>
    </contour>
    <contour>
      <point x="144" y="21"/>
      <point x="126" y="37"/>
      <point x="126" y="95" type="curve" smooth="yes"/>
      <point x="126" y="151"/>
      <point x="143" y="183"/>
      <point x="195" y="195" type="curve" smooth="yes"/>
      <point x="315" y="222" type="line"/>
      <point x="315" y="255" type="line"/>
      <point x="180" y="222" type="line" smooth="yes"/>
      <point x="89" y="200"/>
      <point x="36" y="155"/>
      <point x="36" y="94" type="curve" smooth="yes"/>
      <point x="36" y="35"/>
      <point x="87" y="-12"/>
      <point x="161" y="-12" type="curve" smooth="yes"/>
      <point x="231" y="-12"/>
      <point x="270" y="29"/>
      <point x="315" y="75" type="curve"/>
      <point x="315" y="108" type="line"/>
      <point x="256" y="49"/>
      <point x="221" y="21"/>
      <point x="177" y="21" type="curve" smooth="yes"/>
    </contour>
  </outline>
</glyph>
<glyph name="b" format="1">
  <advance width="543"/>
  <unicode hex="0062"/>
  <outline>
    <contour>
      <point x="383" y="459"/>
      <point x="417" y="389"/>
      <point x="417" y="242" type="curve" smooth="yes"/>
      <point x="417" y="97"/>
      <point x="384" y="21"/>
      <point x="289" y="21" type="curve" smooth="yes"/>
      <point x="194" y="21"/>
      <point x="159" y="96"/>
      <point x="159" y="244" type="curve" smooth="yes"/>
      <point x="159" y="378"/>
      <point x="188" y="459"/>
      <point x="289" y="459" type="curve" smooth="yes"/>
    </contour>
    <contour>
      <point x="-6" y="711" type="line"/>
      <point x="6" y="711" type="line" smooth="yes"/>
      <point x="53" y="711"/>
      <point x="75" y="700"/>
      <point x="75" y="654" type="curve" smooth="yes"/>
      <point x="75" y="-12" type="line"/>
      <point x="108" y="-12" type="line"/>
      <point x="162" y="126" type="line"/>
      <point x="129" y="126" type="line"/>
      <point x="160" y="7"/>
      <point x="234" y="-12"/>
      <point x="289" y="-12" type="curve" smooth="yes"/>
      <point x="433" y="-12"/>
      <point x="507" y="120"/>
      <point x="507" y="238" type="curve" smooth="yes"/>
      <point x="507" y="360"/>
      <point x="429" y="492"/>
      <point x="297" y="492" type="curve" smooth="yes"/>
      <point x="198" y="492"/>
      <point x="126" y="417"/>
      <point x="126" y="333" type="curve"/>
      <point x="159" y="333" type="line"/>
      <point x="159" y="756" type="line"/>
      <point x="-6" y="744" type="line"/>
    </contour>
  </outline>
</glyph>
<glyph name="c" format="1">
  <advance width="480"/>
  <unicode hex="0063"/>
  <outline>
    <contour>
      <point x="432" y="313"/>
      <point x="405" y="288"/>
      <point x="372" y="288" type="curve" smooth="yes"/>
      <point x="339" y="288"/>
      <point x="312" y="314"/>
      <point x="312" y="348" type="curve" smooth="yes"/>
      <point x="312" y="381"/>
      <point x="339" y="408"/>
      <point x="372" y="408" type="curve"/>
      <point x="357" y="354" type="line"/>
      <point x="357" y="390" type="line" smooth="yes"/>
      <point x="357" y="429"/>
      <point x="308" y="459"/>
      <point x="251" y="459" type="curve" smooth="yes"/>
      <point x="159" y="459"/>
      <point x="126" y="381"/>
      <point x="126" y="238" type="curve" smooth="yes"/>
      <point x="126" y="95"/>
      <point x="159" y="21"/>
      <point x="257" y="21" type="curve" smooth="yes"/>
      <point x="346" y="21"/>
      <point x="401" y="81"/>
      <point x="411" y="150" type="curve"/>
      <point x="444" y="144" type="line"/>
      <point x="427" y="47"/>
      <point x="361" y="-12"/>
      <point x="264" y="-12" type="curve" smooth="yes"/>
      <point x="117" y="-12"/>
      <point x="36" y="122"/>
      <point x="36" y="239" type="curve" smooth="yes"/>
      <point x="36" y="360"/>
      <point x="124" y="492"/>
      <point x="252" y="492" type="curve" smooth="yes"/>
      <point x="351" y="492"/>
      <point x="432" y="414"/>
      <point x="432" y="350" type="curve" smooth="yes"/>
    </contour>
  </outline>
</glyph>
<glyph name="d" format="1">
  <advance width="549"/>
  <unicode hex="0064"/>
  <outline>
    <contour>
      <point x="465" y="756" type="line"/>
      <point x="267" y="744" type="line"/>
      <point x="267" y="711" type="line"/>
      <point x="312" y="711" type="line" smooth="yes"/>
      <point x="359" y="711"/>
      <point x="381" y="700"/>
      <point x="381" y="654" type="curve" smooth="yes"/>
      <point x="381" y="351" type="line"/>
      <point x="414" y="351" type="line"/>
      <point x="414" y="447"/>
      <point x="330" y="492"/>
      <point x="248" y="492" type="curve" smooth="yes"/>
      <point x="109" y="492"/>
      <point x="36" y="361"/>
      <point x="36" y="242" type="curve" smooth="yes"/>
      <point x="36" y="119"/>
      <point x="114" y="-12"/>
      <point x="246" y="-12" type="curve" smooth="yes"/>
      <point x="315" y="-12"/>
      <point x="390" y="24"/>
      <point x="423" y="120" type="curve"/>
      <point x="390" y="120" type="line"/>
      <point x="396" y="-12" type="line"/>
      <point x="537" y="0" type="line"/>
      <point x="537" y="33" type="line"/>
      <point x="525" y="33" type="line" smooth="yes"/>
      <point x="484" y="33"/>
      <point x="465" y="44"/>
      <point x="465" y="84" type="curve" smooth="yes"/>
    </contour>
    <contour>
      <point x="350" y="459"/>
      <point x="384" y="385"/>
      <point x="384" y="240" type="curve" smooth="yes"/>
      <point x="384" y="96"/>
      <point x="350" y="21"/>
      <point x="255" y="21" type="curve" smooth="yes"/>
      <point x="162" y="21"/>
      <point x="126" y="92"/>
      <point x="126" y="244" type="curve" smooth="yes"/>
      <point x="126" y="378"/>
      <point x="154" y="459"/>
      <point x="254" y="459" type="curve" smooth="yes"/>
    </contour>
  </outline>
</glyph>
<glyph name="e" format="1">
  <advance width="486"/>
  <unicode hex="0065"/>
  <outline>
    <contour>
      <point x="366" y="492"/>
      <point x="450" y="384"/>
      <point x="450" y="240" type="curve"/>
      <point x="114" y="240" type="line"/>
      <point x="114" y="273" type="line"/>
      <point x="357" y="273" type="line"/>
      <point x="357" y="421"/>
      <point x="310" y="459"/>
      <point x="248" y="459" type="curve" smooth="yes"/>
      <point x="159" y="459"/>
      <point x="126" y="379"/>
      <point x="126" y="237" type="curve" smooth="yes"/>
      <point x="126" y="95"/>
      <point x="159" y="21"/>
      <point x="257" y="21" type="curve" smooth="yes"/>
      <point x="346" y="21"/>
      <point x="401" y="81"/>
      <point x="411" y="150" type="curve"/>
      <point x="444" y="144" type="line"/>
      <point x="427" y="47"/>
      <point x="361" y="-12"/>
      <point x="263" y="-12" type="curve" smooth="yes"/>
      <point x="116" y="-12"/>
      <point x="36" y="123"/>
      <point x="36" y="238" type="curve" smooth="yes"/>
      <point x="36" y="359"/>
      <point x="124" y="492"/>
      <point x="251" y="492" type="curve" smooth="yes"/>
    </contour>
  </outline>
</glyph>
<glyph name="f" format="1">
  <advance width="375"/>
  <unicode hex="0066"/>
  <outline>
    <contour>
      <point x="212" y="723"/>
      <point x="195" y="674"/>
      <point x="195" y="558" type="curve" smooth="yes"/>
      <point x="195" y="471" type="line"/>
      <point x="186" y="480" type="line"/>
      <point x="327" y="480" type="line"/>
      <point x="327" y="447" type="line"/>
      <point x="228" y="447" type="line" smooth="yes"/>
      <point x="198" y="447"/>
      <point x="195" y="435"/>
      <point x="195" y="423" type="curve" smooth="yes"/>
      <point x="195" y="90" type="line" smooth="yes"/>
      <point x="195" y="44"/>
      <point x="217" y="34"/>
      <point x="267" y="33" type="curve" smooth="yes"/>
      <point x="318" y="33" type="line"/>
      <point x="318" y="0" type="line"/>
      <point x="156" y="6" type="line"/>
      <point x="33" y="0" type="line"/>
      <point x="33" y="33" type="line"/>
      <point x="42" y="33" type="line" smooth="yes"/>
      <point x="92" y="34"/>
      <point x="111" y="39"/>
      <point x="111" y="90" type="curve" smooth="yes"/>
      <point x="111" y="456" type="line"/>
      <point x="111" y="423" type="line" smooth="yes"/>
      <point x="111" y="435"/>
      <point x="108" y="447"/>
      <point x="84" y="447" type="curve" smooth="yes"/>
      <point x="36" y="447" type="line"/>
      <point x="36" y="480" type="line"/>
      <point x="120" y="480" type="line"/>
      <point x="111" y="471" type="line"/>
      <point x="111" y="489" type="line" smooth="yes"/>
      <point x="111" y="687"/>
      <point x="202" y="756"/>
      <point x="287" y="756" type="curve" smooth="yes"/>
      <point x="370" y="756"/>
      <point x="429" y="689"/>
      <point x="429" y="628" type="curve" smooth="yes"/>
      <point x="429" y="584"/>
      <point x="398" y="564"/>
      <point x="369" y="564" type="curve" smooth="yes"/>
      <point x="336" y="564"/>
      <point x="309" y="590"/>
      <point x="309" y="624" type="curve" smooth="yes"/>
      <point x="309" y="657"/>
      <point x="336" y="684"/>
      <point x="369" y="684" type="curve"/>
      <point x="354" y="630" type="line"/>
      <point x="354" y="666" type="line" smooth="yes"/>
      <point x="354" y="705"/>
      <point x="325" y="723"/>
      <point x="282" y="723" type="curve" smooth="yes"/>
    </contour>
  </outline>
</glyph>
<glyph name="g" format="1">
  <advance width="606"/>
  <unicode hex="0067"/>
  <outline>
    <contour>
      <point x="393" y="492"/>
      <point x="450" y="396"/>
      <point x="450" y="311" type="curve" smooth="yes"/>
      <point x="450" y="228"/>
      <point x="395" y="138"/>
      <point x="268" y="138" type="curve" smooth="yes"/>
      <point x="141" y="138"/>
      <point x="72" y="228"/>
      <point x="72" y="315" type="curve" smooth="yes"/>
      <point x="72" y="395"/>
      <point x="129" y="492"/>
      <point x="261" y="492" type="curve" smooth="yes"/>
    </contour>
    <contour>
      <point x="164" y="459"/>
      <point x="156" y="408"/>
      <point x="156" y="305" type="curve" smooth="yes"/>
      <point x="156" y="216"/>
      <point x="162" y="171"/>
      <point x="261" y="171" type="curve" smooth="yes"/>
      <point x="360" y="171"/>
      <point x="366" y="216"/>
      <point x="366" y="305" type="curve" smooth="yes"/>
      <point x="366" y="408"/>
      <point x="358" y="459"/>
      <point x="261" y="459" type="curve" smooth="yes"/>
    </contour>
    <contour>
      <point x="435" y="-60"/>
      <point x="392" y="-27"/>
      <point x="288" y="-27" type="curve" smooth="yes"/>
      <point x="240" y="-27" type="line" smooth="yes"/>
      <point x="117" y="-27"/>
      <point x="66" y="14"/>
      <point x="66" y="74" type="curve" smooth="yes"/>
      <point x="66" y="142"/>
      <point x="131" y="171"/>
      <point x="261" y="171" type="curve"/>
      <point x="261" y="138" type="line"/>
      <point x="125" y="138"/>
      <point x="99" y="114"/>
      <point x="99" y="89" type="curve" smooth="yes"/>
      <point x="99" y="60"/>
      <point x="135" y="48"/>
      <point x="240" y="48" type="curve" smooth="yes"/>
      <point x="288" y="48" type="line" smooth="yes"/>
      <point x="388" y="48"/>
      <point x="517" y="30"/>
      <point x="501" y="-96" type="curve" smooth="yes"/>
      <point x="489" y="-193"/>
      <point x="403" y="-249"/>
      <point x="266" y="-249" type="curve" smooth="yes"/>
      <point x="163" y="-249"/>
      <point x="30" y="-217"/>
      <point x="30" y="-111" type="curve" smooth="yes"/>
      <point x="30" y="-36"/>
      <point x="96" y="-3"/>
      <point x="234" y="-3" type="curve" smooth="yes"/>
      <point x="261" y="-3" type="line"/>
      <point x="261" y="-27" type="line"/>
      <point x="228" y="-27" type="line" smooth="yes"/>
      <point x="137" y="-27"/>
      <point x="93" y="-59"/>
      <point x="93" y="-117" type="curve" smooth="yes"/>
      <point x="93" y="-192"/>
      <point x="168" y="-216"/>
      <point x="272" y="-216" type="curve" smooth="yes"/>
      <point x="380" y="-216"/>
      <point x="435" y="-190"/>
      <point x="435" y="-121" type="curve" smooth="yes"/>
    </contour>
    <contour>
      <point x="387" y="423" type="line"/>
      <point x="420" y="423" type="line"/>
      <point x="420" y="462"/>
      <point x="454" y="492"/>
      <point x="502" y="492" type="curve" smooth="yes"/>
      <point x="555" y="492"/>
      <point x="570" y="455"/>
      <point x="570" y="419" type="curve" smooth="yes"/>
      <point x="570" y="377"/>
      <point x="549" y="366"/>
      <point x="527" y="366" type="curve" smooth="yes"/>
      <point x="499" y="366"/>
      <point x="486" y="382"/>
      <point x="486" y="408" type="curve" smooth="yes"/>
      <point x="486" y="456" type="line"/>
      <point x="458" y="456"/>
      <point x="446" y="448"/>
      <point x="447" y="408" type="curve" smooth="yes"/>
      <point x="450" y="312" type="line"/>
    </contour>
  </outline>
</glyph>
<glyph name="h" format="1">
  <advance width="570"/>
  <unicode hex="0068"/>
  <outline>
    <contour>
      <point x="141" y="354" type="line"/>
      <point x="141" y="411"/>
      <point x="191" y="492"/>
      <point x="300" y="492" type="curve" smooth="yes"/>
      <point x="384" y="492"/>
      <point x="459" y="444"/>
      <point x="459" y="348" type="curve" smooth="yes"/>
      <point x="459" y="105" type="line" smooth="yes"/>
      <point x="459" y="54"/>
      <point x="467" y="33"/>
      <point x="528" y="33" type="curve"/>
      <point x="528" y="0" type="line"/>
      <point x="420" y="6" type="line"/>
      <point x="303" y="0" type="line"/>
      <point x="303" y="33" type="line"/>
      <point x="362" y="33"/>
      <point x="375" y="54"/>
      <point x="375" y="105" type="curve" smooth="yes"/>
      <point x="375" y="336" type="line" smooth="yes"/>
      <point x="375" y="420"/>
      <point x="347" y="459"/>
      <point x="283" y="459" type="curve" smooth="yes"/>
      <point x="191" y="459"/>
      <point x="159" y="379"/>
      <point x="159" y="240" type="curve"/>
      <point x="159" y="105" type="line" smooth="yes"/>
      <point x="159" y="54"/>
      <point x="167" y="33"/>
      <point x="228" y="33" type="curve"/>
      <point x="228" y="0" type="line"/>
      <point x="120" y="6" type="line"/>
      <point x="6" y="0" type="line"/>
      <point x="6" y="33" type="line"/>
      <point x="65" y="33"/>
      <point x="75" y="54"/>
      <point x="75" y="105" type="curve" smooth="yes"/>
      <point x="75" y="645" type="line" smooth="yes"/>
      <point x="75" y="681"/>
      <point x="65" y="711"/>
      <point x="6" y="711" type="curve"/>
      <point x="6" y="744" type="line"/>
      <point x="126" y="756" type="line"/>
      <point x="159" y="756" type="line"/>
      <point x="159" y="354" type="line"/>
    </contour>
  </outline>
</glyph>
<glyph name="i" format="1">
  <advance width="312"/>
  <unicode hex="0069"/>
  <outline>
    <contour>
      <point x="117" y="624"/>
      <point x="90" y="651"/>
      <point x="90" y="684" type="curve" smooth="yes"/>
      <point x="90" y="717"/>
      <point x="117" y="744"/>
      <point x="150" y="744" type="curve" smooth="yes"/>
      <point x="183" y="744"/>
      <point x="210" y="717"/>
      <point x="210" y="684" type="curve" smooth="yes"/>
      <point x="210" y="651"/>
      <point x="183" y="624"/>
      <point x="150" y="624" type="curve" smooth="yes"/>
    </contour>
    <contour>
      <point x="195" y="492" type="line"/>
      <point x="162" y="492" type="line"/>
      <point x="42" y="480" type="line"/>
      <point x="42" y="447" type="line"/>
      <point x="101" y="447"/>
      <point x="111" y="417"/>
      <point x="111" y="381" type="curve" smooth="yes"/>
      <point x="111" y="105" type="line" smooth="yes"/>
      <point x="111" y="57"/>
      <point x="101" y="33"/>
      <point x="42" y="33" type="curve"/>
      <point x="42" y="0" type="line"/>
      <point x="156" y="6" type="line"/>
      <point x="264" y="0" type="line"/>
      <point x="264" y="33" type="line"/>
      <point x="203" y="33"/>
      <point x="195" y="57"/>
      <point x="195" y="105" type="curve" smooth="yes"/>
    </contour>
  </outline>
</glyph>
<glyph name="j" format="1">
  <advance width="260"/>
  <unicode hex="006A"/>
  <outline>
    <contour>
      <point x="117" y="624"/>
      <point x="90" y="651"/>
      <point x="90" y="684" type="curve" smooth="yes"/>
      <point x="90" y="717"/>
      <point x="117" y="744"/>
      <point x="150" y="744" type="curve" smooth="yes"/>
      <point x="183" y="744"/>
      <point x="210" y="717"/>
      <point x="210" y="684" type="curve" smooth="yes"/>
      <point x="210" y="651"/>
      <point x="183" y="624"/>
      <point x="150" y="624" type="curve" smooth="yes"/>
    </contour>
    <contour>
      <point x="195" y="492" type="line"/>
      <point x="171" y="492" type="line"/>
      <point x="42" y="480" type="line"/>
      <point x="42" y="456" type="line"/>
      <point x="101" y="456"/>
      <point x="111" y="426"/>
      <point x="111" y="390" type="curve"/>
      <point x="111" y="-60" type="line" smooth="yes"/>
      <point x="111" y="-184"/>
      <point x="102" y="-216"/>
      <point x="58" y="-216" type="curve" smooth="yes"/>
      <point x="35" y="-216"/>
      <point x="21" y="-207"/>
      <point x="0" y="-192" type="curve"/>
      <point x="0" y="-219" type="line"/>
      <point x="24" y="-192"/>
      <point x="33" y="-157"/>
      <point x="33" y="-133" type="curve" smooth="yes"/>
      <point x="33" y="-97"/>
      <point x="12" y="-78"/>
      <point x="-20" y="-78" type="curve" smooth="yes"/>
      <point x="-54" y="-78"/>
      <point x="-72" y="-99"/>
      <point x="-72" y="-134" type="curve" smooth="yes"/>
      <point x="-72" y="-201"/>
      <point x="-4" y="-249"/>
      <point x="62" y="-249" type="curve" smooth="yes"/>
      <point x="138" y="-249"/>
      <point x="195" y="-187"/>
      <point x="195" y="-36" type="curve" smooth="yes"/>
    </contour>
  </outline>
</glyph>
<glyph name="k" format="1">
  <advance width="615"/>
  <unicode hex="006B"/>
  <outline>
    <contour>
      <point x="491" y="65"/>
      <point x="524" y="33"/>
      <point x="564" y="33" type="curve"/>
      <point x="564" y="0" type="line"/>
      <point x="456" y="6" type="line"/>
      <point x="339" y="0" type="line"/>
      <point x="339" y="33" type="line"/>
      <point x="382" y="33"/>
      <point x="411" y="59"/>
      <point x="390" y="90" type="curve" smooth="yes"/>
      <point x="264" y="270" type="line"/>
      <point x="279" y="255" type="line"/>
      <point x="186" y="156" type="line"/>
      <point x="186" y="204" type="line"/>
      <point x="375" y="396" type="line" smooth="yes"/>
      <point x="410" y="431"/>
      <point x="391" y="447"/>
      <point x="351" y="447" type="curve" smooth="yes"/>
      <point x="309" y="447" type="line"/>
      <point x="309" y="480" type="line"/>
      <point x="552" y="480" type="line"/>
      <point x="552" y="447" type="line"/>
      <point x="525" y="447" type="line" smooth="yes"/>
      <point x="490" y="447"/>
      <point x="465" y="435"/>
      <point x="440" y="410" type="curve" smooth="yes"/>
      <point x="300" y="270" type="line"/>
      <point x="312" y="318" type="line"/>
      <point x="450" y="123" type="line" smooth="yes"/>
    </contour>
    <contour>
      <point x="195" y="105" type="line" smooth="yes"/>
      <point x="195" y="60"/>
      <point x="203" y="33"/>
      <point x="264" y="33" type="curve"/>
      <point x="264" y="0" type="line"/>
      <point x="159" y="6" type="line"/>
      <point x="45" y="0" type="line"/>
      <point x="45" y="33" type="line"/>
      <point x="104" y="33"/>
      <point x="113" y="57"/>
      <point x="114" y="105" type="curve" smooth="yes"/>
      <point x="114" y="645" type="line" smooth="yes"/>
      <point x="114" y="681"/>
      <point x="104" y="711"/>
      <point x="45" y="711" type="curve"/>
      <point x="45" y="744" type="line"/>
      <point x="162" y="756" type="line"/>
      <point x="195" y="756" type="line"/>
    </contour>
  </outline>
</glyph>
<glyph name="l" format="1">
  <advance width="249"/>
  <unicode hex="006C"/>
  <outline>
    <contour>
      <point x="156" y="105" type="line" smooth="yes"/>
      <point x="156" y="60"/>
      <point x="164" y="33"/>
      <point x="225" y="33" type="curve"/>
      <point x="225" y="0" type="line"/>
      <point x="120" y="6" type="line"/>
      <point x="6" y="0" type="line"/>
      <point x="6" y="33" type="line"/>
      <point x="65" y="33"/>
      <point x="74" y="57"/>
      <point x="75" y="105" type="curve" smooth="yes"/>
      <point x="75" y="645" type="line" smooth="yes"/>
      <point x="75" y="681"/>
      <point x="65" y="711"/>
      <point x="6" y="711" type="curve"/>
      <point x="6" y="744" type="line"/>
      <point x="123" y="756" type="line"/>
      <point x="156" y="756" type="line"/>
    </contour>
  </outline>
</glyph>
<glyph name="m" format="1">
  <advance width="912"/>
  <unicode hex="006D"/>
  <outline>
    <contour>
      <point x="183" y="354" type="line"/>
      <point x="211" y="475"/>
      <point x="285" y="492"/>
      <point x="338" y="492" type="curve" smooth="yes"/>
      <point x="422" y="492"/>
      <point x="498" y="448"/>
      <point x="501" y="348" type="curve"/>
      <point x="501" y="105" type="line" smooth="yes"/>
      <point x="500" y="60"/>
      <point x="509" y="33"/>
      <point x="570" y="33" type="curve"/>
      <point x="570" y="0" type="line"/>
      <point x="462" y="6" type="line"/>
      <point x="345" y="0" type="line"/>
      <point x="345" y="33" type="line"/>
      <point x="404" y="33"/>
      <point x="416" y="55"/>
      <point x="417" y="105" type="curve" smooth="yes"/>
      <point x="417" y="336" type="line"/>
      <point x="415" y="416"/>
      <point x="393" y="459"/>
      <point x="325" y="459" type="curve" smooth="yes"/>
      <point x="233" y="459"/>
      <point x="201" y="379"/>
      <point x="201" y="240" type="curve" smooth="yes"/>
      <point x="201" y="105" type="line" smooth="yes"/>
      <point x="200" y="60"/>
      <point x="209" y="33"/>
      <point x="270" y="33" type="curve"/>
      <point x="270" y="0" type="line"/>
      <point x="162" y="6" type="line"/>
      <point x="48" y="0" type="line"/>
      <point x="48" y="33" type="line"/>
      <point x="107" y="33"/>
      <point x="116" y="57"/>
      <point x="117" y="105" type="curve" smooth="yes"/>
      <point x="117" y="381" type="line" smooth="yes"/>
      <point x="116" y="417"/>
      <point x="107" y="447"/>
      <point x="48" y="447" type="curve"/>
      <point x="48" y="480" type="line"/>
      <point x="168" y="492" type="line"/>
      <point x="201" y="492" type="line"/>
      <point x="201" y="354" type="line"/>
    </contour>
    <contour>
      <point x="483" y="354" type="line"/>
      <point x="510" y="472"/>
      <point x="582" y="492"/>
      <point x="639" y="492" type="curve" smooth="yes"/>
      <point x="733" y="492"/>
      <point x="801" y="437"/>
      <point x="801" y="348" type="curve" smooth="yes"/>
      <point x="801" y="105" type="line" smooth="yes"/>
      <point x="801" y="60"/>
      <point x="809" y="33"/>
      <point x="870" y="33" type="curve"/>
      <point x="870" y="0" type="line"/>
      <point x="762" y="6" type="line"/>
      <point x="645" y="0" type="line"/>
      <point x="645" y="33" type="line"/>
      <point x="704" y="33"/>
      <point x="717" y="55"/>
      <point x="717" y="105" type="curve" smooth="yes"/>
      <point x="717" y="336" type="line" smooth="yes"/>
      <point x="717" y="420"/>
      <point x="689" y="459"/>
      <point x="625" y="459" type="curve" smooth="yes"/>
      <point x="533" y="459"/>
      <point x="501" y="379"/>
      <point x="501" y="240" type="curve"/>
      <point x="483" y="240" type="line"/>
    </contour>
  </outline>
</glyph>
<glyph name="n" format="1">
  <advance width="612"/>
  <unicode hex="006E"/>
  <outline>
    <contour>
      <point x="183" y="354" type="line"/>
      <point x="183" y="411"/>
      <point x="233" y="492"/>
      <point x="342" y="492" type="curve" smooth="yes"/>
      <point x="426" y="492"/>
      <point x="501" y="444"/>
      <point x="501" y="348" type="curve" smooth="yes"/>
      <point x="501" y="102" type="line" smooth="yes"/>
      <point x="501" y="51"/>
      <point x="509" y="30"/>
      <point x="570" y="30" type="curve"/>
      <point x="570" y="0" type="line"/>
      <point x="462" y="6" type="line"/>
      <point x="345" y="0" type="line"/>
      <point x="345" y="30" type="line"/>
      <point x="404" y="30"/>
      <point x="417" y="51"/>
      <point x="417" y="102" type="curve" smooth="yes"/>
      <point x="417" y="336" type="line" smooth="yes"/>
      <point x="417" y="420"/>
      <point x="389" y="459"/>
      <point x="325" y="459" type="curve" smooth="yes"/>
      <point x="233" y="459"/>
      <point x="201" y="379"/>
      <point x="201" y="240" type="curve" smooth="yes"/>
      <point x="201" y="102" type="line" smooth="yes"/>
      <point x="201" y="51"/>
      <point x="209" y="30"/>
      <point x="270" y="30" type="curve"/>
      <point x="270" y="0" type="line"/>
      <point x="162" y="6" type="line"/>
      <point x="48" y="0" type="line"/>
      <point x="48" y="30" type="line"/>
      <point x="107" y="30"/>
      <point x="117" y="51"/>
      <point x="117" y="102" type="curve" smooth="yes"/>
      <point x="117" y="384" type="line" smooth="yes"/>
      <point x="117" y="420"/>
      <point x="107" y="450"/>
      <point x="48" y="450" type="curve"/>
      <point x="48" y="480" type="line"/>
      <point x="171" y="492" type="line"/>
      <point x="201" y="492" type="line"/>
      <point x="201" y="354" type="line"/>
    </contour>
  </outline>
</glyph>
<glyph name="o" format="1">
  <advance width="510"/>
  <unicode hex="006F"/>
  <outline>
    <contour>
      <point x="387" y="492"/>
      <point x="474" y="360"/>
      <point x="474" y="240" type="curve" smooth="yes"/>
      <point x="474" y="120"/>
      <point x="387" y="-12"/>
      <point x="255" y="-12" type="curve" smooth="yes"/>
      <point x="123" y="-12"/>
      <point x="36" y="120"/>
      <point x="36" y="240" type="curve" smooth="yes"/>
      <point x="36" y="360"/>
      <point x="123" y="492"/>
      <point x="255" y="492" type="curve" smooth="yes"/>
    </contour>
    <contour>
      <point x="159" y="459"/>
      <point x="126" y="384"/>
      <point x="126" y="240" type="curve" smooth="yes"/>
      <point x="126" y="96"/>
      <point x="159" y="21"/>
      <point x="255" y="21" type="curve" smooth="yes"/>
      <point x="351" y="21"/>
      <point x="384" y="96"/>
      <point x="384" y="240" type="curve" smooth="yes"/>
      <point x="384" y="384"/>
      <point x="351" y="459"/>
      <point x="255" y="459" type="curve" smooth="yes"/>
    </contour>
  </outline>
</glyph>
<glyph name="p" format="1">
  <advance width="549"/>
  <unicode hex="0070"/>
  <outline>
    <contour>
      <point x="84" y="-150" type="line" smooth="yes"/>
      <point x="84" y="-199"/>
      <point x="63" y="-204"/>
      <point x="12" y="-204" type="curve"/>
      <point x="12" y="-237" type="line"/>
      <point x="129" y="-231" type="line"/>
      <point x="282" y="-237" type="line"/>
      <point x="282" y="-204" type="line"/>
      <point x="237" y="-204" type="line" smooth="yes"/>
      <point x="188" y="-204"/>
      <point x="168" y="-194"/>
      <point x="168" y="-150" type="curve" smooth="yes"/>
      <point x="168" y="129" type="line"/>
      <point x="135" y="129" type="line"/>
      <point x="135" y="43"/>
      <point x="211" y="-12"/>
      <point x="302" y="-12" type="curve" smooth="yes"/>
      <point x="443" y="-12"/>
      <point x="513" y="120"/>
      <point x="513" y="241" type="curve" smooth="yes"/>
      <point x="513" y="360"/>
      <point x="445" y="492"/>
      <point x="297" y="492" type="curve" smooth="yes"/>
      <point x="187" y="492"/>
      <point x="132" y="420"/>
      <point x="132" y="354" type="curve"/>
      <point x="168" y="354" type="line"/>
      <point x="168" y="492" type="line"/>
      <point x="135" y="492" type="line"/>
      <point x="12" y="480" type="line"/>
      <point x="12" y="447" type="line"/>
      <point x="24" y="447" type="line" smooth="yes"/>
      <point x="63" y="447"/>
      <point x="84" y="436"/>
      <point x="84" y="396" type="curve" smooth="yes"/>
    </contour>
    <contour>
      <point x="389" y="459"/>
      <point x="423" y="385"/>
      <point x="423" y="240" type="curve" smooth="yes"/>
      <point x="423" y="95"/>
      <point x="389" y="21"/>
      <point x="294" y="21" type="curve" smooth="yes"/>
      <point x="197" y="21"/>
      <point x="165" y="97"/>
      <point x="165" y="240" type="curve" smooth="yes"/>
      <point x="165" y="383"/>
      <point x="197" y="459"/>
      <point x="294" y="459" type="curve" smooth="yes"/>
    </contour>
  </outline>
</glyph>
<glyph name="q" format="1">
  <advance width="531"/>
  <unicode hex="0071"/>
  <outline>
    <contour>
      <point x="468" y="492" type="line"/>
      <point x="435" y="492" type="line"/>
      <point x="381" y="348" type="line"/>
      <point x="414" y="348" type="line"/>
      <point x="403" y="440"/>
      <point x="354" y="492"/>
      <point x="260" y="492" type="curve" smooth="yes"/>
      <point x="111" y="492"/>
      <point x="36" y="360"/>
      <point x="36" y="241" type="curve" smooth="yes"/>
      <point x="36" y="119"/>
      <point x="114" y="-12"/>
      <point x="256" y="-12" type="curve" smooth="yes"/>
      <point x="336" y="-12"/>
      <point x="405" y="30"/>
      <point x="405" y="111" type="curve"/>
      <point x="381" y="111" type="line"/>
      <point x="381" y="-150" type="line" smooth="yes"/>
      <point x="381" y="-194"/>
      <point x="360" y="-204"/>
      <point x="309" y="-204" type="curve" smooth="yes"/>
      <point x="265" y="-204" type="line"/>
      <point x="265" y="-237" type="line"/>
      <point x="420" y="-231" type="line"/>
      <point x="537" y="-237" type="line"/>
      <point x="537" y="-204" type="line"/>
      <point x="488" y="-204"/>
      <point x="468" y="-199"/>
      <point x="468" y="-150" type="curve" smooth="yes"/>
    </contour>
    <contour>
      <point x="350" y="459"/>
      <point x="384" y="385"/>
      <point x="384" y="240" type="curve" smooth="yes"/>
      <point x="384" y="96"/>
      <point x="350" y="21"/>
      <point x="255" y="21" type="curve" smooth="yes"/>
      <point x="162" y="21"/>
      <point x="126" y="92"/>
      <point x="126" y="244" type="curve" smooth="yes"/>
      <point x="126" y="378"/>
      <point x="154" y="459"/>
      <point x="254" y="459" type="curve" smooth="yes"/>
    </contour>
  </outline>
</glyph>
<glyph name="r" format="1">
  <advance width="489"/>
  <unicode hex="0072"/>
  <outline>
    <contour>
      <point x="183" y="354" type="line"/>
      <point x="183" y="411"/>
      <point x="235" y="492"/>
      <point x="339" y="492" type="curve" smooth="yes"/>
      <point x="399" y="492"/>
      <point x="438" y="465"/>
      <point x="438" y="399" type="curve" smooth="yes"/>
      <point x="438" y="345"/>
      <point x="411" y="324"/>
      <point x="380" y="324" type="curve" smooth="yes"/>
      <point x="349" y="324"/>
      <point x="330" y="345"/>
      <point x="330" y="378" type="curve" smooth="yes"/>
      <point x="330" y="459" type="line"/>
      <point x="233" y="459"/>
      <point x="201" y="384"/>
      <point x="201" y="240" type="curve"/>
      <point x="201" y="105" type="line" smooth="yes"/>
      <point x="201" y="54"/>
      <point x="210" y="33"/>
      <point x="270" y="33" type="curve" smooth="yes"/>
      <point x="324" y="33" type="line"/>
      <point x="324" y="0" type="line"/>
      <point x="162" y="6" type="line"/>
      <point x="48" y="0" type="line"/>
      <point x="48" y="33" type="line"/>
      <point x="108" y="33"/>
      <point x="117" y="54"/>
      <point x="117" y="105" type="curve" smooth="yes"/>
      <point x="117" y="381" type="line" smooth="yes"/>
      <point x="116" y="417"/>
      <point x="107" y="447"/>
      <point x="48" y="447" type="curve"/>
      <point x="48" y="480" type="line"/>
      <point x="168" y="492" type="line"/>
      <point x="201" y="492" type="line"/>
      <point x="201" y="354" type="line"/>
    </contour>
  </outline>
</glyph>
<glyph name="s" format="1">
  <advance width="460"/>
  <unicode hex="0073"/>
  <outline>
    <contour>
      <point x="381" y="312" type="line"/>
      <point x="381" y="492" type="line"/>
      <point x="348" y="492" type="line"/>
      <point x="309" y="426" type="line"/>
      <point x="348" y="405" type="line"/>
      <point x="295" y="469"/>
      <point x="260" y="492"/>
      <point x="205" y="492" type="curve" smooth="yes"/>
      <point x="120" y="492"/>
      <point x="54" y="436"/>
      <point x="54" y="356" type="curve" smooth="yes"/>
      <point x="54" y="304"/>
      <point x="83" y="255"/>
      <point x="138" y="234" type="curve" smooth="yes"/>
      <point x="261" y="187" type="line" smooth="yes"/>
      <point x="324" y="163"/>
      <point x="351" y="132"/>
      <point x="351" y="93" type="curve" smooth="yes"/>
      <point x="351" y="50"/>
      <point x="319" y="18"/>
      <point x="258" y="18" type="curve" smooth="yes"/>
      <point x="184" y="18"/>
      <point x="148" y="64"/>
      <point x="84" y="192" type="curve"/>
      <point x="51" y="192" type="line"/>
      <point x="51" y="-12" type="line"/>
      <point x="84" y="-12" type="line"/>
      <point x="126" y="84" type="line"/>
      <point x="96" y="84" type="line"/>
      <point x="146" y="14"/>
      <point x="190" y="-15"/>
      <point x="254" y="-15" type="curve" smooth="yes"/>
      <point x="358" y="-15"/>
      <point x="411" y="63"/>
      <point x="411" y="139" type="curve" smooth="yes"/>
      <point x="411" y="205"/>
      <point x="371" y="242"/>
      <point x="300" y="269" type="curve" smooth="yes"/>
      <point x="192" y="310" type="line" smooth="yes"/>
      <point x="139" y="330"/>
      <point x="120" y="353"/>
      <point x="120" y="392" type="curve" smooth="yes"/>
      <point x="120" y="435"/>
      <point x="143" y="459"/>
      <point x="196" y="459" type="curve" smooth="yes"/>
      <point x="265" y="459"/>
      <point x="295" y="418"/>
      <point x="348" y="312" type="curve"/>
    </contour>
  </outline>
</glyph>
<glyph name="t" format="1">
  <advance width="430"/>
  <unicode hex="0074"/>
  <outline>
    <contour>
      <point x="354" y="186" type="line"/>
      <point x="343" y="60"/>
      <point x="309" y="21"/>
      <point x="263" y="21" type="curve" smooth="yes"/>
      <point x="215" y="21"/>
      <point x="189" y="63"/>
      <point x="189" y="126" type="curve" smooth="yes"/>
      <point x="189" y="465" type="line"/>
      <point x="171" y="447" type="line"/>
      <point x="360" y="447" type="line"/>
      <point x="360" y="480" type="line"/>
      <point x="171" y="480" type="line"/>
      <point x="189" y="471" type="line"/>
      <point x="189" y="675" type="line"/>
      <point x="156" y="675" type="line"/>
      <point x="105" y="480" type="line"/>
      <point x="21" y="480" type="line"/>
      <point x="21" y="447" type="line"/>
      <point x="135" y="447" type="line"/>
      <point x="105" y="465" type="line"/>
      <point x="105" y="147" type="line" smooth="yes"/>
      <point x="105" y="40"/>
      <point x="167" y="-12"/>
      <point x="251" y="-12" type="curve" smooth="yes"/>
      <point x="334" y="-12"/>
      <point x="376" y="39"/>
      <point x="387" y="180" type="curve"/>
    </contour>
  </outline>
</glyph>
<glyph name="u" format="1">
  <advance width="576"/>
  <unicode hex="0075"/>
  <outline>
    <contour>
      <point x="375" y="240" type="line" smooth="yes"/>
      <point x="375" y="100"/>
      <point x="342" y="21"/>
      <point x="250" y="21" type="curve" smooth="yes"/>
      <point x="186" y="21"/>
      <point x="159" y="60"/>
      <point x="159" y="144" type="curve" smooth="yes"/>
      <point x="159" y="492" type="line"/>
      <point x="126" y="492" type="line"/>
      <point x="6" y="480" type="line"/>
      <point x="6" y="447" type="line"/>
      <point x="66" y="447"/>
      <point x="75" y="417"/>
      <point x="75" y="381" type="curve" smooth="yes"/>
      <point x="75" y="132" type="line" smooth="yes"/>
      <point x="75" y="43"/>
      <point x="142" y="-12"/>
      <point x="237" y="-12" type="curve" smooth="yes"/>
      <point x="295" y="-12"/>
      <point x="366" y="8"/>
      <point x="393" y="126" type="curve"/>
      <point x="375" y="126" type="line"/>
      <point x="384" y="-12" type="line"/>
      <point x="528" y="0" type="line"/>
      <point x="528" y="33" type="line"/>
      <point x="468" y="33"/>
      <point x="459" y="63"/>
      <point x="459" y="99" type="curve" smooth="yes"/>
      <point x="459" y="492" type="line"/>
      <point x="426" y="492" type="line"/>
      <point x="306" y="480" type="line"/>
      <point x="306" y="447" type="line"/>
      <point x="365" y="447"/>
      <point x="375" y="417"/>
      <point x="375" y="381" type="curve" smooth="yes"/>
    </contour>
  </outline>
</glyph>
<glyph name="v" format="1">
  <advance width="530"/>
  <unicode hex="0076"/>
  <outline>
    <contour>
      <point x="321" y="480" type="line"/>
      <point x="321" y="447" type="line"/>
      <point x="380" y="447"/>
      <point x="398" y="427"/>
      <point x="385" y="389" type="curve" smooth="yes"/>
      <point x="276" y="81" type="line"/>
      <point x="300" y="87" type="line"/>
      <point x="184" y="417" type="line" smooth="yes"/>
      <point x="176" y="439"/>
      <point x="193" y="447"/>
      <point x="261" y="447" type="curve"/>
      <point x="261" y="480" type="line"/>
      <point x="0" y="480" type="line"/>
      <point x="0" y="447" type="line"/>
      <point x="74" y="447"/>
      <point x="90" y="433"/>
      <point x="102" y="402" type="curve" smooth="yes"/>
      <point x="264" y="-12" type="line"/>
      <point x="279" y="-12" type="line"/>
      <point x="430" y="399" type="line" smooth="yes"/>
      <point x="443" y="433"/>
      <point x="471" y="447"/>
      <point x="528" y="447" type="curve"/>
      <point x="528" y="480" type="line"/>
    </contour>
  </outline>
</glyph>
<glyph name="w" format="1">
  <advance width="772"/>
  <unicode hex="0077"/>
  <outline>
    <contour>
      <point x="386" y="397" type="line"/>
      <point x="255" y="66" type="line"/>
      <point x="282" y="72" type="line"/>
      <point x="177" y="378" type="line" smooth="yes"/>
      <point x="161" y="426"/>
      <point x="174" y="447"/>
      <point x="219" y="447" type="curve"/>
      <point x="219" y="480" type="line"/>
      <point x="6" y="480" type="line"/>
      <point x="6" y="447" type="line"/>
      <point x="51" y="447"/>
      <point x="79" y="428"/>
      <point x="96" y="383" type="curve" smooth="yes"/>
      <point x="243" y="-12" type="line"/>
      <point x="267" y="-12" type="line"/>
      <point x="413" y="388" type="line"/>
    </contour>
    <contour>
      <point x="579" y="480" type="line"/>
      <point x="579" y="447" type="line"/>
      <point x="631" y="447"/>
      <point x="652" y="433"/>
      <point x="633" y="384" type="curve" smooth="yes"/>
      <point x="519" y="84" type="line"/>
      <point x="540" y="87" type="line"/>
      <point x="456" y="390" type="line" smooth="yes"/>
      <point x="444" y="432"/>
      <point x="480" y="447"/>
      <point x="531" y="447" type="curve"/>
      <point x="531" y="480" type="line"/>
      <point x="273" y="480" type="line"/>
      <point x="273" y="447" type="line"/>
      <point x="333" y="447"/>
      <point x="359" y="437"/>
      <point x="372" y="396" type="curve" smooth="yes"/>
      <point x="505" y="-12" type="line"/>
      <point x="529" y="-12" type="line"/>
      <point x="681" y="398" type="line" smooth="yes"/>
      <point x="696" y="439"/>
      <point x="722" y="447"/>
      <point x="768" y="447" type="curve"/>
      <point x="768" y="480" type="line"/>
    </contour>
  </outline>
</glyph>
<glyph name="x" format="1">
  <advance width="614"/>
  <unicode hex="0078"/>
  <outline>
    <contour>
      <point x="79" y="447"/>
      <point x="111" y="442"/>
      <point x="144" y="396" type="curve" smooth="yes"/>
      <point x="378" y="72" type="line" smooth="yes"/>
      <point x="398" y="44"/>
      <point x="368" y="33"/>
      <point x="309" y="33" type="curve"/>
      <point x="309" y="0" type="line"/>
      <point x="444" y="6" type="line"/>
      <point x="576" y="0" type="line"/>
      <point x="576" y="33" type="line"/>
      <point x="512" y="33"/>
      <point x="492" y="47"/>
      <point x="470" y="78" type="curve" smooth="yes"/>
      <point x="228" y="412" type="line" smooth="yes"/>
      <point x="206" y="443"/>
      <point x="239" y="447"/>
      <point x="291" y="447" type="curve"/>
      <point x="291" y="480" type="line"/>
      <point x="42" y="480" type="line"/>
      <point x="42" y="447" type="line"/>
    </contour>
    <contour>
      <point x="324" y="258" type="line"/>
      <point x="431" y="393" type="line" smooth="yes"/>
      <point x="470" y="442"/>
      <point x="500" y="447"/>
      <point x="552" y="447" type="curve"/>
      <point x="552" y="480" type="line"/>
      <point x="330" y="480" type="line"/>
      <point x="330" y="447" type="line"/>
      <point x="385" y="447"/>
      <point x="403" y="437"/>
      <point x="381" y="406" type="curve" smooth="yes"/>
      <point x="297" y="285" type="line"/>
    </contour>
    <contour>
      <point x="150" y="6" type="line"/>
      <point x="258" y="0" type="line"/>
      <point x="258" y="33" type="line"/>
      <point x="197" y="33"/>
      <point x="181" y="53"/>
      <point x="201" y="80" type="curve" smooth="yes"/>
      <point x="297" y="213" type="line"/>
      <point x="267" y="246" type="line"/>
      <point x="146" y="81" type="line" smooth="yes"/>
      <point x="122" y="48"/>
      <point x="94" y="33"/>
      <point x="45" y="33" type="curve"/>
      <point x="45" y="0" type="line"/>
    </contour>
  </outline>
</glyph>
<glyph name="y" format="1">
  <advance width="570"/>
  <unicode hex="0079"/>
  <outline>
    <contour>
      <point x="339" y="480" type="line"/>
      <point x="339" y="447" type="line"/>
      <point x="407" y="447"/>
      <point x="428" y="436"/>
      <point x="413" y="396" type="curve" smooth="yes"/>
      <point x="294" y="87" type="line"/>
      <point x="318" y="87" type="line"/>
      <point x="206" y="396" type="line" smooth="yes"/>
      <point x="189" y="441"/>
      <point x="216" y="447"/>
      <point x="288" y="447" type="curve"/>
      <point x="288" y="480" type="line"/>
      <point x="18" y="480" type="line"/>
      <point x="18" y="447" type="line"/>
      <point x="100" y="447"/>
      <point x="108" y="432"/>
      <point x="121" y="398" type="curve" smooth="yes"/>
      <point x="276" y="0" type="line"/>
      <point x="282" y="39" type="line"/>
      <point x="214" y="-132" type="line" smooth="yes"/>
      <point x="190" y="-194"/>
      <point x="174" y="-216"/>
      <point x="111" y="-216" type="curve"/>
      <point x="111" y="-144" type="line" smooth="yes"/>
      <point x="111" y="-116"/>
      <point x="96" y="-90"/>
      <point x="61" y="-90" type="curve" smooth="yes"/>
      <point x="35" y="-90"/>
      <point x="9" y="-105"/>
      <point x="9" y="-146" type="curve" smooth="yes"/>
      <point x="9" y="-185"/>
      <point x="33" y="-249"/>
      <point x="118" y="-249" type="curve" smooth="yes"/>
      <point x="194" y="-249"/>
      <point x="235" y="-198"/>
      <point x="255" y="-144" type="curve" smooth="yes"/>
      <point x="456" y="391" type="line" smooth="yes"/>
      <point x="468" y="424"/>
      <point x="478" y="447"/>
      <point x="558" y="447" type="curve"/>
      <point x="558" y="480" type="line"/>
    </contour>
  </outline>
</glyph>
<glyph name="z" format="1">
  <advance width="495"/>
  <unicode hex="007A"/>
  <outline>
    <contour>
      <point x="81" y="480" type="line"/>
      <point x="75" y="315" type="line"/>
      <point x="99" y="315" type="line"/>
      <point x="99" y="396"/>
      <point x="144" y="456"/>
      <point x="216" y="456" type="curve" smooth="yes"/>
      <point x="363" y="456" type="line"/>
      <point x="348" y="474" type="line"/>
      <point x="48" y="24" type="line"/>
      <point x="60" y="0" type="line"/>
      <point x="441" y="0" type="line"/>
      <point x="447" y="180" type="line"/>
      <point x="423" y="180" type="line"/>
      <point x="420" y="108"/>
      <point x="390" y="24"/>
      <point x="318" y="24" type="curve" smooth="yes"/>
      <point x="120" y="24" type="line"/>
      <point x="141" y="15" type="line"/>
      <point x="438" y="456" type="line"/>
      <point x="426" y="480" type="line"/>
    </contour>
  </outline>
</glyph>
<glyph name="bar" format="1">
  <advance width="168"/>
  <unicode hex="007C"/>
  <outline>
    <contour>
      <point x="48" y="-250" type="line"/>
      <point x="120" y="-250" type="line"/>
      <point x="120" y="756" type="line"/>
      <point x="48" y="756" type="line"/>
    </contour>
  </outline>
</glyph>
<glyph name="periodcentered" format="1">
  <advance width="207"/>
  <unicode hex="00B7"/>
  <outline>
    <contour>
      <point x="102" y="318" type="curve" smooth="yes"/>
      <point x="135" y="318"/>
      <point x="159" y="340"/>
      <point x="159" y="372" type="curve" smooth="yes"/>
      <point x="159" y="405"/>
      <point x="135" y="429"/>
      <point x="102" y="429" type="curve" smooth="yes"/>
      <point x="69" y="429"/>
      <point x="48" y="405"/>
      <point x="48" y="372" type="curve" smooth="yes"/>
      <point x="48" y="340"/>
      <point x="69" y="318"/>
    </contour>
  </outline>
</glyph>
<glyph name="endash" format="1">
  <advance width="525"/>
  <unicode hex="2013"/>
  <outline>
    <contour>
      <point x="48" y="240" type="line"/>
      <point x="477" y="240" type="line"/>
      <point x="477" y="288" type="line"/>
      <point x="48" y="288" type="line"/>
    </contour>
  </outline>
</glyph>
<glyph name="emdash" format="1">
  <advance width="954"/>
  <unicode hex="2014"/>
  <outline>
    <contour>
      <point x="48" y="240" type="line"/>
      <point x="906" y="240" type="line"/>
      <point x="906" y="288" type="line"/>
      <point x="48" y="288" type="line"/>
    </contour>
  </outline>
</glyph>
<glyph name="quoteleft" format="1">
  <advance width="600"/>
  <unicode hex="2018"/>
  <outline>
    <contour>
      <point x="205" y="690" type="line"/>
      <point x="130" y="646"/>
      <point x="106" y="605"/>
      <point x="92" y="498" type="curve"/>
      <point x="145" y="500"/>
      <point x="172" y="473"/>
      <point x="172" y="440" type="curve" smooth="yes"/>
      <point x="172" y="406"/>
      <point x="145" y="380"/>
      <point x="112" y="380" type="curve" smooth="yes"/>
      <point x="79" y="380"/>
      <point x="52" y="406"/>
      <point x="52" y="463" type="curve" smooth="yes"/>
      <point x="52" y="592"/>
      <point x="111" y="692"/>
      <point x="205" y="723" type="curve"/>
    </contour>
  </outline>
</glyph>
<glyph name="quoteright" format="1">
  <advance width="600"/>
  <unicode hex="2019"/>
  <outline>
    <contour>
      <point x="52" y="413" type="line"/>
      <point x="127" y="457"/>
      <point x="151" y="498"/>
      <point x="165" y="605" type="curve"/>
      <point x="112" y="603"/>
      <point x="85" y="630"/>
      <point x="85" y="663" type="curve" smooth="yes"/>
      <point x="85" y="697"/>
      <point x="112" y="723"/>
      <point x="145" y="723" type="curve" smooth="yes"/>
      <point x="178" y="723"/>
      <point x="205" y="697"/>
      <point x="205" y="640" type="curve" smooth="yes"/>
      <point x="205" y="511"/>
      <point x="146" y="411"/>
      <point x="52" y="380" type="curve"/>
    </contour>
  </outline>
</glyph>
<glyph name="quotedblleft" format="1">
  <advance width="409"/>
  <unicode hex="201C"/>
  <outline>
    <contour>
      <point x="361" y="565" type="line"/>
      <point x="286" y="521"/>
      <point x="262" y="480"/>
      <point x="248" y="373" type="curve"/>
      <point x="301" y="375"/>
      <point x="328" y="348"/>
      <point x="328" y="315" type="curve" smooth="yes"/>
      <point x="328" y="281"/>
      <point x="301" y="255"/>
      <point x="268" y="255" type="curve" smooth="yes"/>
      <point x="235" y="255"/>
      <point x="208" y="281"/>
      <point x="208" y="338" type="curve" smooth="yes"/>
      <point x="208" y="467"/>
      <point x="267" y="567"/>
      <point x="361" y="598" type="curve"/>
    </contour>
    <contour>
      <point x="201" y="565" type="line"/>
      <point x="126" y="521"/>
      <point x="102" y="480"/>
      <point x="88" y="373" type="curve"/>
      <point x="141" y="375"/>
      <point x="168" y="348"/>
      <point x="168" y="315" type="curve" smooth="yes"/>
      <point x="168" y="281"/>
      <point x="141" y="255"/>
      <point x="108" y="255" type="curve" smooth="yes"/>
      <point x="75" y="255"/>
      <point x="48" y="281"/>
      <point x="48" y="338" type="curve" smooth="yes"/>
      <point x="48" y="467"/>
      <point x="107" y="567"/>
      <point x="201" y="598" type="curve"/>
    </contour>
  </outline>
</glyph>
<glyph name="quotedblright" format="1">
  <advance width="409"/>
  <unicode hex="201D"/>
  <outline>
    <contour>
      <point x="48" y="288" type="line"/>
      <point x="123" y="332"/>
      <point x="147" y="373"/>
      <point x="161" y="480" type="curve"/>
      <point x="108" y="478"/>
      <point x="81" y="505"/>
      <point x="81" y="538" type="curve" smooth="yes"/>
      <point x="81" y="572"/>
      <point x="108" y="598"/>
      <point x="141" y="598" type="curve" smooth="yes"/>
      <point x="174" y="598"/>
      <point x="201" y="572"/>
      <point x="201" y="515" type="curve" smooth="yes"/>
      <point x="201" y="386"/>
      <point x="142" y="286"/>
      <point x="48" y="255" type="curve"/>
    </contour>
    <contour>
      <point x="208" y="288" type="line"/>
      <point x="283" y="332"/>
      <point x="307" y="373"/>
      <point x="321" y="480" type="curve"/>
      <point x="268" y="478"/>
      <point x="241" y="505"/>
      <point x="241" y="538" type="curve" smooth="yes"/>
      <point x="241" y="572"/>
      <point x="268" y="598"/>
      <point x="301" y="598" type="curve" smooth="yes"/>
      <point x="334" y="598"/>
      <point x="361" y="572"/>
      <point x="361" y="515" type="curve" smooth="yes"/>
      <point x="361" y="386"/>
      <point x="302" y="286"/>
      <point x="208" y="255" type="curve"/>
    </contour>
  </outline>
</glyph>
<glyph name="bullet" format="1">
  <advance width="373"/>
  <unicode hex="2022"/>
  <outline>
    <contour>
      <point x="183" y="105" type="curve" smooth="yes"/>
      <point x="265" y="105"/>
      <point x="325" y="160"/>
      <point x="325" y="240" type="curve" smooth="yes"/>
      <point x="325" y="322"/>
      <point x="265" y="382"/>
      <point x="183" y="382" type="curve" smooth="yes"/>
      <point x="100" y="382"/>
      <point x="48" y="322"/>
      <point x="48" y="240" type="curve" smooth="yes"/>
      <point x="48" y="160"/>
      <point x="100" y="105"/>
    </contour>
  </outline>
</glyph>
<glyph name="ellipsis" format="1">
  <advance width="525"/>
  <unicode hex="2026"/>
  <outline>
    <contour>
      <point x="102" y="-12" type="curve" smooth="yes"/>
      <point x="135" y="-12"/>
      <point x="159" y="10"/>
      <point x="159" y="42" type="curve" smooth="yes"/>
      <point x="159" y="75"/>
      <point x="135" y="99"/>
      <point x="102" y="99" type="curve" smooth="yes"/>
      <point x="69" y="99"/>
      <point x="48" y="75"/>
      <point x="48" y="42" type="curve" smooth="yes"/>
      <point x="48" y="10"/>
      <point x="69" y="-12"/>
    </contour>
    <contour>
      <point x="261" y="-12" type="curve" smooth="yes"/>
      <point x="294" y="-12"/>
      <point x="318" y="10"/>
      <point x="318" y="42" type="curve" smooth="yes"/>
      <point x="318" y="75"/>
      <point x="294" y="99"/>
      <point x="261" y="99" type="curve" smooth="yes"/>
      <point x="228" y="99"/>
      <point x="207" y="75"/>
      <point x="207" y="42" type="curve" smooth="yes"/>
      <point x="207" y="10"/>
      <point x="228" y="-12"/>
    </contour>
    <contour>
      <point x="420" y="-12" type="curve" smooth="yes"/>
      <point x="453" y="-12"/>
      <point x="477" y="10"/>
      <point x="477" y="42" type="curve" smooth="yes"/>
      <point x="477" y="75"/>
      <point x="453" y="99"/>
      <point x="420" y="99" type="curve" smooth="yes"/>
      <point x="387" y="99"/>
      <point x="366" y="75"/>
      <point x="366" y="42" type="curve" smooth="yes"/>
      <point x="366" y="10"/>
      <point x="387" y="-12"/>
    </contour>
  </outline>
</glyph>
<glyph name="measure" format="1">
  <advance width="500"/>
  <outline>
    <contour>
      <point x="221" y="364" type="curve" smooth="yes"/>
      <point x="231" y="364"/>
      <point x="239" y="372"/>
      <point x="239" y="382" type="curve" smooth="yes"/>
      <point x="239" y="392"/>
      <point x="231" y="399"/>
      <point x="221" y="399" type="curve" smooth="yes"/>
      <point x="211" y="399"/>
      <point x="204" y="392"/>
      <point x="204" y="382" type="curve" smooth="yes"/>
      <point x="204" y="372"/>
      <point x="211" y="364"/>
    </contour>
    <contour>
      <point x="160" y="369" type="curve" smooth="yes"/>
      <point x="167" y="369"/>
      <point x="173" y="375"/>
      <point x="173" y="382" type="curve" smooth="yes"/>
      <point x="173" y="389"/>
      <point x="167" y="394"/>
      <point x="160" y="394" type="curve" smooth="yes"/>
      <point x="153" y="394"/>
      <point x="148" y="389"/>
      <point x="148" y="382" type="curve" smooth="yes"/>
      <point x="148" y="375"/>
      <point x="153" y="369"/>
    </contour>
  </outline>
</glyph>
